<?xml version="1.0" encoding="UTF-8"?>
<svg version="1.1" xmlns="http://www.w3.org/2000/svg" width="512" height="512">
<path d="M0 0 C0.70044434 0.20898926 1.40088867 0.41797852 2.12255859 0.63330078 C24.47440638 7.34639792 42.04315933 20.28062005 58 37 C58.99675151 38.00323797 59.99510213 39.00492198 61 40 C61.60585938 39.61328125 62.21171875 39.2265625 62.8359375 38.828125 C79.90924083 28.21641031 98.4689634 25.25974329 118.37109375 28.6171875 C137.14917184 33.10802946 153.46743728 44.79256512 164 61 C169.34569784 70.44154123 174 81.00781776 174 92 C174.76965088 91.97905273 175.53930176 91.95810547 176.33227539 91.93652344 C199.83170533 91.38132195 220.38427154 92.89299631 238.4375 109.375 C253.18045722 123.51477018 261.81064197 140.0132898 262.40063477 160.63525391 C262.63729475 181.03189641 257.53246709 198.97941456 243.19995117 213.92333984 C230.83526779 226.30283629 219.05845029 231.73538743 202 236 C190.12 236 178.24 236 166 236 C166 275.6 166 315.2 166 356 C171.61 356 177.22 356 183 356 C183.33 354.02 183.66 352.04 184 350 C188.21556635 341.76960856 194.27364223 336.32257868 202.79296875 332.8671875 C211.42735573 330.53243243 221.79326093 330.84184949 229.89453125 334.75 C237.71236947 339.39138818 242.8754518 345.81152245 245.8515625 354.48046875 C248.08885485 363.86218132 247.06473841 372.36850733 242.37109375 380.78515625 C237.98427546 387.87155502 232.10307852 392.83523283 224.171875 395.6484375 C214.84072794 397.15887497 205.14391126 397.13640876 197 392 C196.37867188 391.649375 195.75734375 391.29875 195.1171875 390.9375 C190.0633743 387.78707099 186.60697214 383.32767126 184 378 C183.67 376.02 183.34 374.04 183 372 C177.39 372 171.78 372 166 372 C166.09355283 379.88391779 166.19965242 387.76752916 166.31738281 395.65112305 C166.35674536 398.3330514 166.39134236 401.01497842 166.421875 403.69702148 C166.46753953 407.55210682 166.52553299 411.40683969 166.5859375 415.26171875 C166.60326431 417.06040657 166.60326431 417.06040657 166.62094116 418.89543152 C166.6507457 420.5766082 166.6507457 420.5766082 166.68115234 422.29174805 C166.70113785 423.76734444 166.70113785 423.76734444 166.7215271 425.27275085 C167.02121056 428.20772748 167.67398068 430.36935255 169 433 C172.57776284 435.04343884 175.88888621 435.28888881 179.95703125 435.4140625 C181.06884766 435.45273437 182.18066406 435.49140625 183.32617188 435.53125 C184.47666016 435.5621875 185.62714844 435.593125 186.8125 435.625 C187.98232422 435.66367187 189.15214844 435.70234375 190.35742188 435.7421875 C193.23812564 435.8362513 196.11882654 435.92189877 199 436 C199.13792969 435.06285156 199.27585937 434.12570312 199.41796875 433.16015625 C200.71530138 426.11624956 205.78614803 420.48773537 211.5625 416.5 C219.73695838 411.34034187 228.63275364 411.04537617 238 412 C246.57494559 413.95238088 253.01875412 418.69789872 257.8125 426 C262.79454891 434.16171835 262.74454771 442.77128523 262 452 C261.1277968 455.37566213 259.85340784 458.0613731 258 461 C257.649375 461.62132812 257.29875 462.24265625 256.9375 462.8828125 C252.66138965 469.74240619 245.7070631 473.94165022 238 476 C229.11258433 476.79203912 220.76798722 476.89931144 213 472 C212.37867188 471.649375 211.75734375 471.29875 211.1171875 470.9375 C206.0633743 467.78707099 202.60697214 463.32767126 200 458 C199.63713078 456.00514736 199.3004626 454.00520157 199 452 C198.07251953 452.02094727 197.14503906 452.04189453 196.18945312 452.06347656 C192.71539171 452.13205499 189.24205989 452.18199327 185.76757812 452.21972656 C184.2700661 452.23971919 182.77263092 452.26692299 181.27539062 452.30175781 C171.72893832 452.51814406 164.33484269 452.67495797 156.7578125 446.03515625 C156.21898437 445.38417969 155.68015625 444.73320312 155.125 444.0625 C154.57070313 443.41410156 154.01640625 442.76570313 153.4453125 442.09765625 C150.41570748 437.70063491 149.75173557 433.9419762 149.77294922 428.64916992 C149.77310028 427.3882402 149.77325134 426.12731049 149.77340698 424.82817078 C149.78361864 423.46226848 149.7940506 422.09636781 149.8046875 420.73046875 C149.80842059 419.32514141 149.81126617 417.91981147 149.81326294 416.51448059 C149.82087611 412.82700332 149.84050447 409.13968518 149.8626709 405.45227051 C149.88317941 401.68499911 149.89227533 397.91770184 149.90234375 394.15039062 C149.92375275 386.76685477 149.95786046 379.38344974 150 372 C149.12827148 372.00888245 148.25654297 372.01776489 147.35839844 372.0269165 C139.11990425 372.10725738 130.88154273 372.1680632 122.64274597 372.20724869 C118.40765593 372.22807209 114.17289116 372.25629279 109.93798828 372.30175781 C105.84660674 372.34540424 101.75553693 372.36917653 97.66394043 372.37950897 C96.10749407 372.3868668 94.55106365 372.40123476 92.99475098 372.42292023 C83.52472168 372.54955716 76.20633028 372.56234169 68.7578125 366.03515625 C68.21898437 365.38417969 67.68015625 364.73320312 67.125 364.0625 C66.57070313 363.41410156 66.01640625 362.76570313 65.4453125 362.09765625 C62.72957114 358.15616136 61.74944101 354.63967974 61.75949097 349.88102722 C61.75536697 348.36879074 61.75536697 348.36879074 61.75115967 346.82600403 C61.75835022 345.73124252 61.76554077 344.63648102 61.77294922 343.50854492 C61.77265717 342.34713989 61.77236511 341.18573486 61.77206421 339.98913574 C61.7734568 336.15283724 61.78901502 332.3167333 61.8046875 328.48046875 C61.80841788 325.81960216 61.81136313 323.15874633 61.81326294 320.49787903 C61.81947325 314.21167787 61.83587796 307.92554646 61.85596192 301.63937598 C61.87833491 294.4810022 61.88931787 287.32262504 61.89935279 280.16422498 C61.92024461 265.44277613 61.95691523 250.72140214 62 236 C51.44 236 40.88 236 30 236 C30 294.41 30 352.82 30 413 C31.98 413.33 33.96 413.66 36 414 C44.23039144 418.21556635 49.67742132 424.27364223 53.1328125 432.79296875 C55.46756757 441.42735573 55.15815051 451.79326093 51.25 459.89453125 C46.60861182 467.71236947 40.18847755 472.8754518 31.51953125 475.8515625 C22.20316146 478.07327231 13.65587029 477.09769885 5.28515625 472.44140625 C-1.99340418 467.85031429 -6.78300387 462.48153644 -9.61328125 454.20703125 C-11.24062028 444.91969232 -11.11126068 435.10403831 -6 427 C-5.649375 426.37867188 -5.29875 425.75734375 -4.9375 425.1171875 C-1.78707099 420.0633743 2.67232874 416.60697214 8 414 C9.98 413.67 11.96 413.34 14 413 C14 354.59 14 296.18 14 236 C3.44 236 -7.12 236 -18 236 C-17.97905273 239.07828125 -17.95810547 242.1565625 -17.93652344 245.328125 C-17.87018089 255.51006034 -17.82603552 265.69200534 -17.79275131 275.87409973 C-17.77189582 282.04622857 -17.74361478 288.21813555 -17.69824219 294.39013672 C-17.65471269 300.34885839 -17.63084756 306.30736693 -17.62049103 312.26623535 C-17.61311249 314.53718418 -17.59870393 316.80812163 -17.57707977 319.07897949 C-17.54795214 322.26514701 -17.54404802 325.45043905 -17.54589844 328.63671875 C-17.53151733 329.57108261 -17.51713623 330.50544647 -17.50231934 331.46812439 C-17.54686369 338.57796664 -19.24230444 343.85304721 -23.96484375 349.2421875 C-24.61582031 349.78101563 -25.26679688 350.31984375 -25.9375 350.875 C-26.58589844 351.42929687 -27.23429688 351.98359375 -27.90234375 352.5546875 C-32.54955496 355.75667661 -36.49364714 356.24691422 -42.08520508 356.22705078 C-42.77843872 356.22734283 -43.47167236 356.22763489 -44.18591309 356.22793579 C-46.46391574 356.22654897 -48.74158615 356.21101867 -51.01953125 356.1953125 C-52.6042208 356.19158006 -54.18891266 356.18873418 -55.77360535 356.18673706 C-59.93454413 356.17911877 -64.09534221 356.15948588 -68.25622559 356.1373291 C-72.50608416 356.11683172 -76.75596557 356.10772703 -81.00585938 356.09765625 C-89.33730399 356.0762382 -97.66863447 356.04212416 -106 356 C-105.99111755 356.97195313 -105.98223511 357.94390625 -105.9730835 358.9453125 C-105.89183487 368.12562842 -105.83195667 377.30587095 -105.79275131 386.48646545 C-105.77191744 391.20581095 -105.74367695 395.92486511 -105.69824219 400.64404297 C-105.65463405 405.20225876 -105.63083132 409.76019514 -105.62049103 414.31860352 C-105.61312644 416.05367427 -105.59874517 417.78873053 -105.57707977 419.52368164 C-105.54784588 421.96273291 -105.54405219 424.40064419 -105.54589844 426.83984375 C-105.53151733 427.54978989 -105.51713623 428.25973602 -105.50231934 428.99119568 C-105.55452835 435.40702315 -107.78392723 440.47112173 -111.96484375 445.2421875 C-112.94130859 446.05042969 -112.94130859 446.05042969 -113.9375 446.875 C-114.58589844 447.42929687 -115.23429687 447.98359375 -115.90234375 448.5546875 C-120.68740432 451.85165661 -124.73009917 452.24119443 -130.48828125 452.1953125 C-131.5430793 452.19106766 -131.5430793 452.19106766 -132.6191864 452.18673706 C-134.85046892 452.17560151 -137.08134017 452.15050997 -139.3125 452.125 C-140.83137438 452.1149616 -142.3502551 452.10583726 -143.86914062 452.09765625 C-147.57955921 452.07568413 -151.28973942 452.04120047 -155 452 C-155.13792969 452.93714844 -155.27585938 453.87429688 -155.41796875 454.83984375 C-156.71530138 461.88375044 -161.78614803 467.51226463 -167.5625 471.5 C-175.73695838 476.65965813 -184.63275364 476.95462383 -194 476 C-203.07651214 473.93342026 -209.34172585 468.91316103 -214.3125 461.1875 C-219.07087272 452.65041953 -219.93100493 444.60486867 -218 435 C-214.58297093 425.40498236 -209.10317464 418.68975218 -200.1484375 413.9453125 C-192.87105709 410.74326512 -182.87361985 410.75105007 -175.1953125 412.71875 C-172.99143293 413.66435923 -171.02691207 414.72161563 -169 416 C-168.37867188 416.350625 -167.75734375 416.70125 -167.1171875 417.0625 C-162.0633743 420.21292901 -158.60697214 424.67232874 -156 430 C-155.63713078 431.99485264 -155.3004626 433.99479843 -155 436 C-150.93695446 435.88986124 -146.87481333 435.75929135 -142.8125 435.625 C-141.08676758 435.57859375 -141.08676758 435.57859375 -139.32617188 435.53125 C-138.21435547 435.49257813 -137.10253906 435.45390625 -135.95703125 435.4140625 C-134.42526245 435.36693115 -134.42526245 435.36693115 -132.86254883 435.31884766 C-129.80430695 434.97820255 -127.67712545 434.5290399 -125 433 C-122.86634707 428.94185644 -122.72882024 425.35939312 -122.68115234 420.82299805 C-122.67110672 420.12001083 -122.6610611 419.41702362 -122.65071106 418.69273376 C-122.61996192 416.38240331 -122.60286728 414.07218829 -122.5859375 411.76171875 C-122.56721916 410.15459709 -122.54764525 408.54748519 -122.5272522 406.94038391 C-122.47599519 402.72038535 -122.43633516 398.50035495 -122.39910889 394.2802124 C-122.35902883 389.96993169 -122.30795477 385.6597827 -122.2578125 381.34960938 C-122.16112932 372.89982306 -122.07771696 364.44998207 -122 356 C-127.61 356 -133.22 356 -139 356 C-139.33 357.98 -139.66 359.96 -140 362 C-144.21556635 370.23039144 -150.27364223 375.67742132 -158.79296875 379.1328125 C-167.42735573 381.46756757 -177.79326093 381.15815051 -185.89453125 377.25 C-194.17925886 372.33142331 -199.87889371 365.02361376 -202.4375 355.625 C-204.27369559 344.77996978 -201.69471561 335.96723013 -195.65234375 327 C-191.32992931 321.41336963 -185.02618103 317.23113615 -178 316 C-168.98419475 315.39894632 -160.889335 315.02415386 -153 320 C-152.37867188 320.350625 -151.75734375 320.70125 -151.1171875 321.0625 C-146.0633743 324.21292901 -142.60697214 328.67232874 -140 334 C-139.67 335.98 -139.34 337.96 -139 340 C-133.39 340 -127.78 340 -122 340 C-122 305.68 -122 271.36 -122 236 C-133.88 236 -145.76 236 -158 236 C-179.32403697 230.31359014 -195.72834954 221.88353109 -208 203 C-218.24595972 184.90364401 -221.3365459 164.31548005 -216.5 143.9375 C-210.63112198 125.6560472 -198.66918598 109.26088659 -181.49609375 100.0625 C-172.29562289 95.41095196 -162.45880184 91.67435965 -152 92 C-151.86464844 91.18660156 -151.72929687 90.37320313 -151.58984375 89.53515625 C-147.48674456 67.69290968 -136.87570497 49.2675838 -122 33 C-121.28328125 32.20078125 -120.5665625 31.4015625 -119.828125 30.578125 C-109.14368876 19.25101591 -96.12754702 11.27973358 -82 5 C-80.93394531 4.51789062 -79.86789063 4.03578125 -78.76953125 3.5390625 C-54.87711375 -6.45396383 -24.69674167 -7.92457533 0 0 Z M-101 37 C-101.75023437 37.61617187 -102.50046875 38.23234375 -103.2734375 38.8671875 C-117.63881874 51.07531013 -129.69914432 69.46785764 -134 88 C-134.0448374 89.66606344 -134.05513821 91.33424565 -134 93 C-133.09121094 93.1959375 -132.18242187 93.391875 -131.24609375 93.59375 C-111.457597 98.30239743 -97.20466138 108.0796605 -85.328125 124.6875 C-84 127 -84 127 -84 130 C-85.7664657 131.0076952 -87.53833823 132.00591714 -89.3125 133 C-90.29863281 133.556875 -91.28476563 134.11375 -92.30078125 134.6875 C-95 136 -95 136 -98 136 C-99.69140625 133.875 -99.69140625 133.875 -101.5625 131 C-109.68188397 119.47905262 -122.04553134 111.47579283 -136 109 C-136.7321875 108.86722656 -137.464375 108.73445313 -138.21875 108.59765625 C-152.77356582 106.4947689 -167.44769127 110.76155052 -179.3125 119.1875 C-190.30900534 127.96731849 -198.55191858 139.94794966 -201 154 C-202.58023614 170.5977587 -199.99943236 184.38966151 -190 198 C-189.49984375 198.70769531 -188.9996875 199.41539062 -188.484375 200.14453125 C-180.34016898 210.5715829 -166.94913101 217.49619784 -153.97490096 219.27813607 C-146.6882826 220.07877982 -139.46087372 220.14265404 -132.13580322 220.13371277 C-130.75121682 220.13558416 -129.36663094 220.13788616 -127.98204589 220.14057809 C-124.20073307 220.14666193 -120.41944248 220.14656655 -116.6381259 220.14538372 C-112.55073936 220.14517884 -108.46335981 220.1507067 -104.37597656 220.15544128 C-96.37689246 220.16372952 -88.37781574 220.16649529 -80.3787277 220.16705366 C-73.87355494 220.16752967 -67.36838459 220.16958864 -60.86321259 220.17275429 C-42.39980258 220.18155571 -23.93639837 220.18617444 -5.47298625 220.18542381 C-4.4786879 220.18538386 -3.48438954 220.1853439 -2.45996094 220.18530273 C-1.46444174 220.18526185 -0.46892253 220.18522097 0.55676392 220.18517885 C16.68713032 220.18477248 32.81747338 220.19434115 48.94783303 220.2084411 C65.53002085 220.22282108 82.11219728 220.2297104 98.69439149 220.22884732 C107.99613828 220.22851593 117.29786059 220.23123797 126.59960175 220.24202538 C134.51946621 220.25115171 142.43929508 220.25328813 150.35916254 220.24651595 C154.39532243 220.24326156 158.43141413 220.24315479 162.46756744 220.2518692 C166.17125562 220.25978315 169.87482207 220.25825338 173.57850745 220.24958507 C175.53411402 220.24734553 177.48972452 220.25484008 179.44531608 220.26282471 C198.39811654 220.18971175 214.56616347 216.9635318 229 204 C240.73269111 191.93095856 245.43461078 178.13078617 245.36352539 161.65258789 C245.10941163 149.34557622 241.25586957 139.87604469 234 130 C233.49984375 129.29230469 232.9996875 128.58460938 232.484375 127.85546875 C223.57655366 116.4507581 209.26584607 110.03623423 195.1875 108.25 C188.14762364 107.7479856 181.05293816 107.92124511 174 108 C173.79636841 108.81621826 173.79636841 108.81621826 173.58862305 109.64892578 C172.96210074 112.14281864 172.32489458 114.63386473 171.6875 117.125 C171.47416016 117.9809375 171.26082031 118.836875 171.04101562 119.71875 C169.81084733 124.49253743 168.32561418 128.62157096 166 133 C166 133.66 166 134.32 166 135 C161.38 132.69 156.76 130.38 152 128 C152.77520046 124.12399768 153.70763409 121.08446881 155.0625 117.4375 C159.93388147 101.7348784 157.50857854 86.49766323 150.0625 72.125 C142.29852591 58.65845437 130.10902873 49.99170698 115.14453125 45.859375 C100.38203293 42.39765366 85.61554871 45.3991199 72.609375 52.8515625 C70.84400566 53.92174397 70.84400566 53.92174397 70 56 C70.96676179 58.0986537 72.02693244 60.15446696 73.125 62.1875 C80.65691148 76.68135064 83.98570586 91.88564692 86 108 C77.585 108.495 77.585 108.495 69 109 C68.9175 107.164375 68.835 105.32875 68.75 103.4375 C66.64137322 77.431103 52.55376765 53.2962289 33.0078125 36.34375 C-5.94837369 4.12407061 -62.31314428 4.5030412 -101 37 Z M-106 236 C-106 270.32 -106 304.64 -106 340 C-90.345625 340.0928125 -90.345625 340.0928125 -74.375 340.1875 C-69.44506104 340.22846802 -69.44506104 340.22846802 -64.41552734 340.27026367 C-61.8056678 340.27902689 -59.19580416 340.28667121 -56.5859375 340.29296875 C-55.91325836 340.30080887 -55.24057922 340.30864899 -54.54751587 340.31672668 C-52.55050112 340.33882418 -50.55328926 340.34001862 -48.55615234 340.34057617 C-46.87070816 340.35056892 -46.87070816 340.35056892 -45.1512146 340.36076355 C-41.44082271 339.93598317 -39.11697623 339.0562346 -36 337 C-33.20516378 332.68445974 -33.73231771 327.59074603 -33.77294922 322.61987305 C-33.77265717 321.68280014 -33.77236511 320.74572723 -33.77206421 319.78025818 C-33.77345476 316.69065003 -33.78900315 313.60128465 -33.8046875 310.51171875 C-33.8084186 308.36652254 -33.81126512 306.22132462 -33.81326294 304.0761261 C-33.82089171 298.43561074 -33.84053379 292.79519871 -33.8626709 287.15472412 C-33.88674669 280.38406255 -33.8959139 273.6133664 -33.90757751 266.84267426 C-33.92695854 256.56171102 -33.96528652 246.28097441 -34 236 C-57.76 236 -81.52 236 -106 236 Z M78 236 C77.91274734 255.75975276 77.91274734 255.75975276 77.85351562 275.51953125 C77.83557981 283.57834857 77.81480658 291.63706443 77.77368164 299.69580078 C77.74054312 306.19264709 77.72314811 312.68942493 77.71536827 319.18635178 C77.70982371 321.66547751 77.69899664 324.14459721 77.68280983 326.6236763 C77.66104427 330.09511549 77.65803279 333.56610125 77.65942383 337.03759766 C77.648638 338.06330872 77.63785217 339.08901978 77.6267395 340.14581299 C77.64968858 345.43586942 77.75057318 349.57388811 81 354 C84.73188163 356.22264519 88.16336304 356.24393151 92.44262695 356.22705078 C93.74139771 356.22680908 95.04016846 356.22656738 96.3782959 356.22631836 C97.748293 356.21624925 99.11828818 356.20591621 100.48828125 356.1953125 C101.74137085 356.19329834 102.99446045 356.19128418 104.28552246 356.18920898 C108.96121894 356.17875419 113.63686319 356.15083162 118.3125 356.125 C128.769375 356.08375 139.22625 356.0425 150 356 C150 316.4 150 276.8 150 236 C126.24 236 102.48 236 78 236 Z M-183.375 339.625 C-185.57907893 344.20270239 -185.7971639 348.00552411 -185 353 C-182.67031069 357.83858548 -179.83858548 360.67031069 -175 363 C-170.00552411 363.7971639 -166.20270239 363.57907893 -161.625 361.375 C-158.04092287 358.13226355 -155.40464759 355.53524104 -154.6171875 350.6015625 C-154.36116081 344.91777006 -155.06373068 341.35061345 -159 337 C-163.35061345 333.06373068 -166.91777006 332.36116081 -172.6015625 332.6171875 C-177.53524104 333.40464759 -180.13226355 336.04092287 -183.375 339.625 Z M200.625 355.625 C198.42092107 360.20270239 198.2028361 364.00552411 199 369 C201.32968931 373.83858548 204.16141452 376.67031069 209 379 C213.99447589 379.7971639 217.79729761 379.57907893 222.375 377.375 C225.95907713 374.13226355 228.59535241 371.53524104 229.3828125 366.6015625 C229.63883919 360.91777006 228.93626932 357.35061345 225 353 C220.64938655 349.06373068 217.08222994 348.36116081 211.3984375 348.6171875 C206.46475896 349.40464759 203.86773645 352.04092287 200.625 355.625 Z M-199.375 435.625 C-201.57907893 440.20270239 -201.7971639 444.00552411 -201 449 C-198.67031069 453.83858548 -195.83858548 456.67031069 -191 459 C-186.00552411 459.7971639 -182.20270239 459.57907893 -177.625 457.375 C-174.04092287 454.13226355 -171.40464759 451.53524104 -170.6171875 446.6015625 C-170.36116081 440.91777006 -171.06373068 437.35061345 -175 433 C-179.35061345 429.06373068 -182.91777006 428.36116081 -188.6015625 428.6171875 C-193.53524104 429.40464759 -196.13226355 432.04092287 -199.375 435.625 Z M8.625 435.625 C6.42092107 440.20270239 6.2028361 444.00552411 7 449 C9.32968931 453.83858548 12.16141452 456.67031069 17 459 C21.99447589 459.7971639 25.79729761 459.57907893 30.375 457.375 C33.95907713 454.13226355 36.59535241 451.53524104 37.3828125 446.6015625 C37.63883919 440.91777006 36.93626932 437.35061345 33 433 C28.64938655 429.06373068 25.08222994 428.36116081 19.3984375 428.6171875 C14.46475896 429.40464759 11.86773645 432.04092287 8.625 435.625 Z M216.625 435.625 C214.42092107 440.20270239 214.2028361 444.00552411 215 449 C217.32968931 453.83858548 220.16141452 456.67031069 225 459 C229.99447589 459.7971639 233.79729761 459.57907893 238.375 457.375 C241.95907713 454.13226355 244.59535241 451.53524104 245.3828125 446.6015625 C245.63883919 440.91777006 244.93626932 437.35061345 241 433 C236.64938655 429.06373068 233.08222994 428.36116081 227.3984375 428.6171875 C222.46475896 429.40464759 219.86773645 432.04092287 216.625 435.625 Z " fill="#883293" transform="translate(234,20)"/>
<path d="M0 0 C1.31328781 -0.01210762 1.31328781 -0.01210762 2.65310669 -0.02445984 C4.50748717 -0.03830096 6.36189313 -0.04902299 8.21630859 -0.05688477 C11.05224816 -0.07410904 13.88702536 -0.11799518 16.72265625 -0.16210938 C18.52342892 -0.1722353 20.32421151 -0.18075172 22.125 -0.1875 C23.39704788 -0.21376213 23.39704788 -0.21376213 24.6947937 -0.24055481 C25.88590256 -0.23616646 25.88590256 -0.23616646 27.10107422 -0.23168945 C27.79675507 -0.23755569 28.49243591 -0.24342194 29.209198 -0.24946594 C32.18061631 0.48025077 33.33811826 1.84296001 35.1953125 4.23828125 C35.97042847 7.02386475 35.97042847 7.02386475 36.35107422 10.19042969 C36.57171539 11.92431946 36.57171539 11.92431946 36.79681396 13.6932373 C36.92831848 14.86310181 37.059823 16.03296631 37.1953125 17.23828125 C37.39136078 18.81277039 37.39136078 18.81277039 37.59136963 20.41906738 C37.98340757 23.61190463 38.34710379 26.8068613 38.703125 30.00390625 C38.89864456 31.74217682 38.89864456 31.74217682 39.09811401 33.51556396 C39.37004485 35.94218421 39.64054843 38.3689648 39.90966797 40.79589844 C40.3208919 44.49349105 40.74033021 48.19009416 41.16015625 51.88671875 C41.42497942 54.25905879 41.68931911 56.63145287 41.953125 59.00390625 C42.14057785 60.64483246 42.14057785 60.64483246 42.33181763 62.31890869 C42.99039255 68.33564732 43.32111244 74.18564257 43.1953125 80.23828125 C40.54980194 80.43214617 37.90413467 80.61866392 35.2578125 80.80078125 C34.12569336 80.88489258 34.12569336 80.88489258 32.97070312 80.97070312 C31.04785292 81.10004282 29.12141702 81.17345037 27.1953125 81.23828125 C25.10372123 79.14668998 25.45876092 75.00094277 25.1328125 72.11328125 C25.04193359 71.365625 24.95105469 70.61796875 24.85742188 69.84765625 C24.32099547 65.2174494 24.1953125 60.96726201 24.1953125 56.23828125 C15.6153125 56.23828125 7.0353125 56.23828125 -1.8046875 56.23828125 C-1.9490625 58.71328125 -2.0934375 61.18828125 -2.2421875 63.73828125 C-3.21735017 79.65094392 -3.21735017 79.65094392 -4.8046875 81.23828125 C-7.50577254 81.14736525 -10.17399061 81.00087359 -12.8671875 80.80078125 C-13.62580078 80.74857422 -14.38441406 80.69636719 -15.16601562 80.64257812 C-17.04590472 80.5125229 -18.92534435 80.37600087 -20.8046875 80.23828125 C-21.0000946 72.34597568 -20.23926756 64.66499567 -19.37890625 56.82421875 C-19.22904463 55.4413873 -19.07929178 54.05854406 -18.92964172 52.6756897 C-18.6162383 49.79250541 -18.29871763 46.90980761 -17.97875977 44.02734375 C-17.57121701 40.34916849 -17.17838093 36.66958235 -16.78914165 32.98943138 C-16.48521017 30.13858284 -16.17127054 27.28889991 -15.85459328 24.43944168 C-15.70552174 23.08357042 -15.56000462 21.72730309 -15.41824913 20.37064743 C-14.00405261 6.90915462 -14.00405261 6.90915462 -10.8046875 1.23828125 C-7.45595208 -0.43608646 -3.68435888 0.03194078 0 0 Z M3.1953125 16.23828125 C1.98553397 18.65783831 1.892653 20.54913147 1.66015625 23.24609375 C1.58144287 24.13441895 1.50272949 25.02274414 1.42163086 25.93798828 C1.27866577 27.6335083 1.27866577 27.6335083 1.1328125 29.36328125 C0.8234375 32.95203125 0.5140625 36.54078125 0.1953125 40.23828125 C7.4553125 40.23828125 14.7153125 40.23828125 22.1953125 40.23828125 C21.8859375 36.64953125 21.5765625 33.06078125 21.2578125 29.36328125 C21.11484741 27.66776123 21.11484741 27.66776123 20.96899414 25.93798828 C20.89028076 25.04966309 20.81156738 24.16133789 20.73046875 23.24609375 C20.6519165 22.3348877 20.57336426 21.42368164 20.49243164 20.48486328 C20.31535831 18.20663725 20.31535831 18.20663725 19.1953125 16.23828125 C13.9153125 16.23828125 8.6353125 16.23828125 3.1953125 16.23828125 Z " fill="#883293" transform="translate(172.8046875,143.76171875)"/>
<path d="M0 0 C1.10794922 -0.01260864 2.21589844 -0.02521729 3.35742188 -0.03820801 C4.54916016 -0.03011108 5.74089844 -0.02201416 6.96875 -0.01367188 C8.19658203 -0.01749878 9.42441406 -0.02132568 10.68945312 -0.02526855 C13.28516459 -0.02799029 15.88090336 -0.02061099 18.4765625 -0.00390625 C22.45374599 0.01749738 26.42912282 -0.0037015 30.40625 -0.02929688 C32.92708733 -0.02665365 35.44792353 -0.02152878 37.96875 -0.01367188 C39.16048828 -0.0217688 40.35222656 -0.02986572 41.58007812 -0.03820801 C43.24200195 -0.01929504 43.24200195 -0.01929504 44.9375 0 C45.91138672 0.00318237 46.88527344 0.00636475 47.88867188 0.00964355 C51.23812406 0.66904318 52.42312814 1.82319641 54.46875 4.51757812 C54.97668457 6.49023438 54.97668457 6.49023438 54.98632812 8.58007812 C54.99893677 9.36769531 55.01154541 10.1553125 55.02453613 10.96679688 C55.01643921 11.80855469 55.00834229 12.6503125 55 13.51757812 C55.00574036 14.82662109 55.00574036 14.82662109 55.01159668 16.16210938 C55.0143149 18.00456905 55.00695994 19.84706737 54.99023438 21.68945312 C54.96882248 24.50803746 54.99003801 27.32407297 55.015625 30.14257812 C55.01298171 31.93425041 55.00785669 33.72592111 55 35.51757812 C55.00809692 36.35933594 55.01619385 37.20109375 55.02453613 38.06835938 C54.96782624 41.61082556 54.79704825 43.92545658 53.06152344 47.05566406 C48.97502701 49.35980159 45.06207179 49.00923545 40.453125 48.90820312 C39.48215881 48.90254333 38.51119263 48.89688354 37.51080322 48.89105225 C34.41294831 48.86868124 31.31625467 48.81848285 28.21875 48.76757812 C26.11720422 48.74751409 24.01564028 48.72926315 21.9140625 48.71289062 C16.7648189 48.67221729 11.61808249 48.59392737 6.46875 48.51757812 C6.46875 59.07757813 6.46875 69.63757813 6.46875 80.51757812 C1.18875 80.51757812 -4.09125 80.51757812 -9.53125 80.51757812 C-9.6216024 70.67750669 -9.69499533 60.83771055 -9.73849869 50.99731827 C-9.75937765 46.42806849 -9.78770071 41.8591171 -9.83300781 37.29003906 C-9.87645488 32.8809694 -9.90038478 28.47218682 -9.91075897 24.06291962 C-9.91815243 22.38036326 -9.93259017 20.6978227 -9.95417023 19.01538849 C-9.98319003 16.65932712 -9.98720675 14.30445339 -9.98535156 11.94824219 C-9.99973267 11.25196716 -10.01411377 10.55569214 -10.02893066 9.83831787 C-10.00137425 6.60604151 -9.70443388 4.76789036 -7.84857178 2.08551025 C-5.00951882 0.16456755 -3.41219686 0.01115005 0 0 Z M6.46875 16.51757812 C6.46875 21.79757813 6.46875 27.07757813 6.46875 32.51757812 C17.02875 32.51757812 27.58875 32.51757812 38.46875 32.51757812 C38.46875 27.23757812 38.46875 21.95757812 38.46875 16.51757812 C27.90875 16.51757812 17.34875 16.51757812 6.46875 16.51757812 Z " fill="#883292" transform="translate(241.53125,143.482421875)"/>
<path d="M0 0 C0 5.61 0 11.22 0 17 C-1.36125 17.2475 -2.7225 17.495 -4.125 17.75 C-8.58951232 18.72024047 -11.34509516 20.32567939 -15 23 C-15.66 23 -16.32 23 -17 23 C-17.68774405 24.32258472 -18.34711373 25.65986503 -19 27 C-19.53625 27.99 -20.0725 28.98 -20.625 30 C-23.01835943 35.70724172 -23.19782375 42.62235286 -21.1328125 48.4453125 C-20.10664691 50.53852743 -20.10664691 50.53852743 -18.97265625 52.37890625 C-18 54 -18 54 -17 57 C-15.30230766 58.10168984 -15.30230766 58.10168984 -13 59 C-11.329375 59.7734375 -11.329375 59.7734375 -9.625 60.5625 C-2.83089663 63.25671341 3.87247543 63.19809609 11.0859375 63.31640625 C12.14285797 63.33718735 13.19977844 63.35796844 14.28872681 63.37937927 C17.65075445 63.44453991 21.01285737 63.50360361 24.375 63.5625 C26.6601639 63.60571708 28.94532031 63.64933238 31.23046875 63.69335938 C36.82023619 63.80018687 42.41007903 63.901548 48 64 C48 69.28 48 74.56 48 80 C40.75814529 80.09088585 33.51660968 80.16404942 26.27430248 80.20724869 C22.91027075 80.22799721 19.5466542 80.25607591 16.18286133 80.30175781 C12.30278844 80.35062704 8.42329474 80.37305005 4.54296875 80.390625 C3.35293747 80.41127014 2.16290619 80.43191528 0.93681335 80.45318604 C-10.96686358 80.45633979 -20.32339472 77.28295967 -29 69 C-37.80850953 59.77286823 -40.62574301 50.14955676 -40.47070312 37.63525391 C-40.00249528 25.80802493 -35.4516305 17.15892893 -26.93359375 9.02734375 C-18.90306965 2.26101664 -10.44879297 -0.68516675 0 0 Z " fill="#883293" transform="translate(88,144)"/>
<path d="M0 0 C15.84 0 31.68 0 48 0 C48 5.28 48 10.56 48 16 C42.72 16 37.44 16 32 16 C32 31.84 32 47.68 32 64 C37.28 64 42.56 64 48 64 C48 69.28 48 74.56 48 80 C32.16 80 16.32 80 0 80 C0 74.72 0 69.44 0 64 C5.28 64 10.56 64 16 64 C16 48.16 16 32.32 16 16 C10.72 16 5.44 16 0 16 C0 10.72 0 5.44 0 0 Z " fill="#883393" transform="translate(312,144)"/>
</svg>
