<?xml version="1.0" encoding="UTF-8"?>
<!DOCTYPE svg PUBLIC "-//W3C//DTD SVG 1.1//EN" "http://www.w3.org/Graphics/SVG/1.1/DTD/svg11.dtd">
<svg xmlns="http://www.w3.org/2000/svg" version="1.1" width="800px" height="800px" style="shape-rendering:geometricPrecision; text-rendering:geometricPrecision; image-rendering:optimizeQuality; fill-rule:evenodd; clip-rule:evenodd" xmlns:xlink="http://www.w3.org/1999/xlink">
<g><path style="opacity:1" fill="#c8a1cd" d="M 595.5,106.5 C 530.665,106.168 465.998,106.501 401.5,107.5C 401.167,107.5 400.833,107.5 400.5,107.5C 336.5,106.833 272.5,106.167 208.5,105.5C 330.167,105.799 451.667,105.466 573,104.5C 579.167,104.667 585.333,104.833 591.5,105C 593.058,105.21 594.391,105.71 595.5,106.5 Z"/></g>
<g><path style="opacity:1" fill="#89328f" d="M 208.5,105.5 C 272.5,106.167 336.5,106.833 400.5,107.5C 380.524,168.739 360.857,230.073 341.5,291.5C 276.5,291.5 211.5,291.5 146.5,291.5C 149.703,281.226 152.703,270.892 155.5,260.5C 157.855,258.077 158.855,255.077 158.5,251.5C 159.738,249.786 160.405,247.786 160.5,245.5C 162.072,242.785 163.072,239.785 163.5,236.5C 166.33,231.669 167.997,226.335 168.5,220.5C 172.405,210.784 175.739,200.784 178.5,190.5C 178.5,190.167 178.5,189.833 178.5,189.5C 180.739,184.784 182.405,179.784 183.5,174.5C 185.739,169.784 187.405,164.784 188.5,159.5C 188.5,159.167 188.5,158.833 188.5,158.5C 190.074,156.898 190.741,154.898 190.5,152.5C 192.38,150.245 193.38,147.578 193.5,144.5C 193.5,144.167 193.5,143.833 193.5,143.5C 194.738,141.786 195.405,139.786 195.5,137.5C 196.738,135.786 197.405,133.786 197.5,131.5C 197.557,130.391 197.89,129.391 198.5,128.5C 201.208,122.047 203.541,115.381 205.5,108.5C 206.167,107.167 207.167,106.167 208.5,105.5 Z"/></g>
<g><path style="opacity:1" fill="#f9f9f9" d="M 400.5,107.5 C 400.833,107.5 401.167,107.5 401.5,107.5C 421.467,168.403 441.467,229.403 461.5,290.5C 526.164,291.333 590.831,291.833 655.5,292C 607.344,327.245 559.01,362.245 510.5,397C 506.635,400.038 502.969,403.205 499.5,406.5C 518.864,467.426 538.531,528.26 558.5,589C 558.167,589.5 557.833,590 557.5,590.5C 505.814,552.331 453.814,514.664 401.5,477.5C 348.939,514.552 296.772,552.218 245,590.5C 244.493,591.996 244.993,593.163 246.5,594C 258.745,602.61 270.745,611.444 282.5,620.5C 274.401,615.583 266.401,610.416 258.5,605C 252.39,600.623 246.723,595.789 241.5,590.5C 242.496,590.586 243.329,590.252 244,589.5C 264.302,528.264 283.969,466.93 303,405.5C 251.269,367.432 199.269,329.765 147,292.5C 146.055,292.905 145.388,293.572 145,294.5C 143.259,302.426 141.092,310.093 138.5,317.5C 139.026,311.392 140.193,305.392 142,299.5C 145.266,290.7 147.933,281.7 150,272.5C 151.769,268.31 153.602,264.31 155.5,260.5C 152.703,270.892 149.703,281.226 146.5,291.5C 211.5,291.5 276.5,291.5 341.5,291.5C 360.857,230.073 380.524,168.739 400.5,107.5 Z"/></g>
<g><path style="opacity:1" fill="#f3ecf4" d="M 598.5,111.5 C 600.074,113.102 600.741,115.102 600.5,117.5C 599.262,115.786 598.595,113.786 598.5,111.5 Z"/></g>
<g><path style="opacity:1" fill="#f2ecf3" d="M 205.5,108.5 C 203.541,115.381 201.208,122.047 198.5,128.5C 199.522,122.749 201.022,117.082 203,111.5C 203.377,110.058 204.21,109.058 205.5,108.5 Z"/></g>
<g><path style="opacity:1" fill="#f5f2f6" d="M 600.5,117.5 C 603.227,122.045 604.894,127.045 605.5,132.5C 603.261,127.784 601.595,122.784 600.5,117.5 Z"/></g>
<g><path style="opacity:1" fill="#f5f1f5" d="M 197.5,131.5 C 197.405,133.786 196.738,135.786 195.5,137.5C 195.259,135.102 195.926,133.102 197.5,131.5 Z"/></g>
<g><path style="opacity:1" fill="#f8f6f8" d="M 605.5,132.5 C 607.472,135.084 608.472,138.084 608.5,141.5C 606.928,138.785 605.928,135.785 605.5,132.5 Z"/></g>
<g><path style="opacity:1" fill="#f6f4f7" d="M 195.5,137.5 C 195.405,139.786 194.738,141.786 193.5,143.5C 193.259,141.102 193.926,139.102 195.5,137.5 Z"/></g>
<g><path style="opacity:1" fill="#d9c0dc" d="M 608.5,142.5 C 610.267,144.792 611.267,147.458 611.5,150.5C 609.415,148.316 608.415,145.649 608.5,142.5 Z"/></g>
<g><path style="opacity:1" fill="#ebdeec" d="M 193.5,144.5 C 193.38,147.578 192.38,150.245 190.5,152.5C 190.415,149.351 191.415,146.684 193.5,144.5 Z"/></g>
<g><path style="opacity:1" fill="#f3eef4" d="M 190.5,152.5 C 190.741,154.898 190.074,156.898 188.5,158.5C 188.595,156.214 189.262,154.214 190.5,152.5 Z"/></g>
<g><path style="opacity:1" fill="#f3eef4" d="M 611.5,150.5 C 612.924,152.515 613.59,154.848 613.5,157.5C 612.076,155.485 611.41,153.152 611.5,150.5 Z"/></g>
<g><path style="opacity:1" fill="#f4f0f5" d="M 613.5,157.5 C 615.472,160.084 616.472,163.084 616.5,166.5C 614.928,163.785 613.928,160.785 613.5,157.5 Z"/></g>
<g><path style="opacity:1" fill="#f4f0f5" d="M 188.5,159.5 C 187.405,164.784 185.739,169.784 183.5,174.5C 184.194,169.085 185.86,164.085 188.5,159.5 Z"/></g>
<g><path style="opacity:1" fill="#d3b2d4" d="M 616.5,166.5 C 617.738,168.214 618.405,170.214 618.5,172.5C 616.72,171.01 616.054,169.01 616.5,166.5 Z"/></g>
<g><path style="opacity:1" fill="#f0e8f0" d="M 618.5,172.5 C 619.738,174.214 620.405,176.214 620.5,178.5C 618.926,176.898 618.259,174.898 618.5,172.5 Z"/></g>
<g><path style="opacity:1" fill="#f7f5f7" d="M 183.5,174.5 C 182.405,179.784 180.739,184.784 178.5,189.5C 179.194,184.085 180.86,179.085 183.5,174.5 Z"/></g>
<g><path style="opacity:1" fill="#f2eaf3" d="M 623.5,188.5 C 625.074,190.102 625.741,192.102 625.5,194.5C 624.262,192.786 623.595,190.786 623.5,188.5 Z"/></g>
<g><path style="opacity:1" fill="#f5f0f5" d="M 626.5,197.5 C 627.117,197.611 627.617,197.944 628,198.5C 629.44,202.041 630.274,205.708 630.5,209.5C 628.595,205.784 627.261,201.784 626.5,197.5 Z"/></g>
<g><path style="opacity:1" fill="#f4f0f5" d="M 178.5,190.5 C 175.739,200.784 172.405,210.784 168.5,220.5C 170.119,212.142 172.452,203.976 175.5,196C 176.14,193.88 177.14,192.046 178.5,190.5 Z"/></g>
<g><path style="opacity:1" fill="#f6f4f7" d="M 630.5,210.5 C 632.655,212.617 633.655,215.284 633.5,218.5C 632.129,216.064 631.129,213.397 630.5,210.5 Z"/></g>
<g><path style="opacity:1" fill="#f3eef3" d="M 633.5,218.5 C 635.163,220.438 635.829,222.772 635.5,225.5C 634.388,223.401 633.721,221.067 633.5,218.5 Z"/></g>
<g><path style="opacity:1" fill="#dbc0dc" d="M 168.5,220.5 C 167.997,226.335 166.33,231.669 163.5,236.5C 164.552,230.953 166.219,225.62 168.5,220.5 Z"/></g>
<g><path style="opacity:1" fill="#e6d6e6" d="M 635.5,225.5 C 637.922,230.165 639.589,235.165 640.5,240.5C 638.078,235.835 636.411,230.835 635.5,225.5 Z"/></g>
<g><path style="opacity:1" fill="#f4eef4" d="M 163.5,236.5 C 163.072,239.785 162.072,242.785 160.5,245.5C 160.528,242.084 161.528,239.084 163.5,236.5 Z"/></g>
<g><path style="opacity:1" fill="#f4f0f4" d="M 160.5,245.5 C 160.405,247.786 159.738,249.786 158.5,251.5C 158.054,248.99 158.72,246.99 160.5,245.5 Z"/></g>
<g><path style="opacity:1" fill="#e8d8ea" d="M 642.5,246.5 C 644.31,249.145 645.31,252.145 645.5,255.5C 643.145,253.077 642.145,250.077 642.5,246.5 Z"/></g>
<g><path style="opacity:1" fill="#e8d9e9" d="M 158.5,251.5 C 158.855,255.077 157.855,258.077 155.5,260.5C 155.69,257.145 156.69,254.145 158.5,251.5 Z"/></g>
<g><path style="opacity:1" fill="#f8f6f8" d="M 645.5,255.5 C 647.472,258.084 648.472,261.084 648.5,264.5C 648.167,264.5 647.833,264.5 647.5,264.5C 646.833,261.5 646.167,258.5 645.5,255.5 Z"/></g>
<g><path style="opacity:1" fill="#e6d5e7" d="M 647.5,264.5 C 647.833,264.5 648.167,264.5 648.5,264.5C 650.61,268.502 651.943,272.835 652.5,277.5C 650.266,273.478 648.599,269.144 647.5,264.5 Z"/></g>
<g><path style="opacity:1" fill="#89328f" d="M 241.5,590.5 C 240.738,588.738 239.404,587.738 237.5,587.5C 236.738,585.738 235.404,584.738 233.5,584.5C 232.738,582.738 231.404,581.738 229.5,581.5C 227.1,578.097 224.1,575.43 220.5,573.5C 214.167,566.5 207.5,559.833 200.5,553.5C 192.826,543.495 185.16,533.495 177.5,523.5C 176.66,521.147 175.326,519.147 173.5,517.5C 167.496,506.159 161.496,494.826 155.5,483.5C 148.263,464.793 142.263,445.793 137.5,426.5C 135.621,413.561 134.288,400.561 133.5,387.5C 133.5,376.5 133.5,365.5 133.5,354.5C 133.5,352.5 133.5,350.5 133.5,348.5C 134.449,344.343 135.116,340.01 135.5,335.5C 135.5,334.5 135.5,333.5 135.5,332.5C 137.082,329.124 137.749,325.458 137.5,321.5C 137.232,319.901 137.566,318.568 138.5,317.5C 141.092,310.093 143.259,302.426 145,294.5C 145.388,293.572 146.055,292.905 147,292.5C 199.269,329.765 251.269,367.432 303,405.5C 283.969,466.93 264.302,528.264 244,589.5C 243.329,590.252 242.496,590.586 241.5,590.5 Z"/></g>
<g><path style="opacity:1" fill="#89328f" d="M 401.5,107.5 C 465.998,106.501 530.665,106.168 595.5,106.5C 597.741,107.3 598.741,108.966 598.5,111.5C 598.595,113.786 599.262,115.786 600.5,117.5C 601.595,122.784 603.261,127.784 605.5,132.5C 605.928,135.785 606.928,138.785 608.5,141.5C 608.5,141.833 608.5,142.167 608.5,142.5C 608.415,145.649 609.415,148.316 611.5,150.5C 611.41,153.152 612.076,155.485 613.5,157.5C 613.928,160.785 614.928,163.785 616.5,166.5C 616.054,169.01 616.72,171.01 618.5,172.5C 618.259,174.898 618.926,176.898 620.5,178.5C 621.901,181.704 622.901,185.037 623.5,188.5C 623.595,190.786 624.262,192.786 625.5,194.5C 626.11,195.391 626.443,196.391 626.5,197.5C 627.261,201.784 628.595,205.784 630.5,209.5C 630.5,209.833 630.5,210.167 630.5,210.5C 631.129,213.397 632.129,216.064 633.5,218.5C 633.721,221.067 634.388,223.401 635.5,225.5C 636.411,230.835 638.078,235.835 640.5,240.5C 641.738,242.214 642.405,244.214 642.5,246.5C 642.145,250.077 643.145,253.077 645.5,255.5C 646.167,258.5 646.833,261.5 647.5,264.5C 648.599,269.144 650.266,273.478 652.5,277.5C 654.674,284.029 656.674,290.696 658.5,297.5C 658.41,300.152 659.076,302.485 660.5,304.5C 661.13,308.048 662.13,311.381 663.5,314.5C 663.322,318.122 663.989,321.456 665.5,324.5C 665.5,324.833 665.5,325.167 665.5,325.5C 666.478,334.687 667.812,343.687 669.5,352.5C 669.5,363.833 669.5,375.167 669.5,386.5C 668.62,396.702 667.62,407.035 666.5,417.5C 666.795,419.735 666.461,421.735 665.5,423.5C 658.765,455.701 647.098,486.035 630.5,514.5C 629.89,516.434 628.89,518.101 627.5,519.5C 626.094,519.973 625.427,520.973 625.5,522.5C 624.094,522.973 623.427,523.973 623.5,525.5C 608.554,546.29 591.221,565.123 571.5,582C 515.099,623.188 458.766,664.355 402.5,705.5C 401.5,705.5 400.5,705.5 399.5,705.5C 397.704,703.1 395.37,701.433 392.5,700.5C 389.09,696.762 385.09,693.762 380.5,691.5C 372.705,684.768 364.371,678.768 355.5,673.5C 354.738,671.738 353.404,670.738 351.5,670.5C 351.027,669.094 350.027,668.427 348.5,668.5C 346.704,666.1 344.37,664.433 341.5,663.5C 340.738,661.738 339.404,660.738 337.5,660.5C 335.704,658.1 333.37,656.433 330.5,655.5C 329.738,653.738 328.404,652.738 326.5,652.5C 324.704,650.1 322.37,648.433 319.5,647.5C 316.399,644.067 312.732,641.4 308.5,639.5C 307.738,637.738 306.404,636.738 304.5,636.5C 303.738,634.738 302.404,633.738 300.5,633.5C 300.027,632.094 299.027,631.427 297.5,631.5C 294.399,628.067 290.732,625.4 286.5,623.5C 285.738,621.738 284.404,620.738 282.5,620.5C 270.745,611.444 258.745,602.61 246.5,594C 244.993,593.163 244.493,591.996 245,590.5C 296.772,552.218 348.939,514.552 401.5,477.5C 453.814,514.664 505.814,552.331 557.5,590.5C 557.833,590 558.167,589.5 558.5,589C 538.531,528.26 518.864,467.426 499.5,406.5C 502.969,403.205 506.635,400.038 510.5,397C 559.01,362.245 607.344,327.245 655.5,292C 590.831,291.833 526.164,291.333 461.5,290.5C 441.467,229.403 421.467,168.403 401.5,107.5 Z"/></g>
<g><path style="opacity:1" fill="#c292c4" d="M 658.5,297.5 C 659.931,298.78 660.598,300.447 660.5,302.5C 660.5,303.167 660.5,303.833 660.5,304.5C 659.076,302.485 658.41,300.152 658.5,297.5 Z"/></g>
<g><path style="opacity:1" fill="#f0e8f1" d="M 660.5,302.5 C 662.966,306.018 663.966,310.018 663.5,314.5C 662.13,311.381 661.13,308.048 660.5,304.5C 660.5,303.833 660.5,303.167 660.5,302.5 Z"/></g>
<g><path style="opacity:1" fill="#eee5ee" d="M 663.5,314.5 C 665.011,317.544 665.678,320.878 665.5,324.5C 663.989,321.456 663.322,318.122 663.5,314.5 Z"/></g>
<g><path style="opacity:1" fill="#f1eaf1" d="M 137.5,321.5 C 137.749,325.458 137.082,329.124 135.5,332.5C 135.646,328.613 136.313,324.946 137.5,321.5 Z"/></g>
<g><path style="opacity:1" fill="#efe7f0" d="M 665.5,325.5 C 668.337,334.129 669.67,343.129 669.5,352.5C 667.812,343.687 666.478,334.687 665.5,325.5 Z"/></g>
<g><path style="opacity:1" fill="#f6f2f6" d="M 135.5,335.5 C 135.116,340.01 134.449,344.343 133.5,348.5C 133.335,345.15 133.502,341.817 134,338.5C 134.232,337.263 134.732,336.263 135.5,335.5 Z"/></g>
<g><path style="opacity:1" fill="#d5b9d9" d="M 133.5,354.5 C 133.5,365.5 133.5,376.5 133.5,387.5C 133.167,387.5 132.833,387.5 132.5,387.5C 131.216,376.466 131.549,365.466 133.5,354.5 Z"/></g>
<g><path style="opacity:1" fill="#ebdfec" d="M 132.5,387.5 C 132.833,387.5 133.167,387.5 133.5,387.5C 134.288,400.561 135.621,413.561 137.5,426.5C 135.811,422.097 134.645,417.431 134,412.5C 133.458,404.165 132.958,395.831 132.5,387.5 Z"/></g>
<g><path style="opacity:1" fill="#e6d8e8" d="M 669.5,386.5 C 670.008,397.126 669.008,407.459 666.5,417.5C 667.62,407.035 668.62,396.702 669.5,386.5 Z"/></g>
<g><path style="opacity:1" fill="#efe7f0" d="M 137.5,426.5 C 142.263,445.793 148.263,464.793 155.5,483.5C 152.852,479.538 150.685,475.204 149,470.5C 145.665,460.489 142.331,450.489 139,440.5C 138.462,435.829 137.962,431.162 137.5,426.5 Z"/></g>
<g><path style="opacity:1" fill="#f0e7f1" d="M 665.5,423.5 C 660.128,455.11 649.295,484.777 633,512.5C 632.292,513.381 631.458,514.047 630.5,514.5C 647.098,486.035 658.765,455.701 665.5,423.5 Z"/></g>
<g><path style="opacity:1" fill="#f0e8f1" d="M 155.5,483.5 C 161.496,494.826 167.496,506.159 173.5,517.5C 165.431,507.367 159.431,496.034 155.5,483.5 Z"/></g>
<g><path style="opacity:1" fill="#f3edf4" d="M 173.5,517.5 C 175.326,519.147 176.66,521.147 177.5,523.5C 175.178,522.198 173.845,520.198 173.5,517.5 Z"/></g>
<g><path style="opacity:1" fill="#f2eaf3" d="M 627.5,519.5 C 627.573,521.027 626.906,522.027 625.5,522.5C 625.427,520.973 626.094,519.973 627.5,519.5 Z"/></g>
<g><path style="opacity:1" fill="#f2ebf3" d="M 625.5,522.5 C 625.573,524.027 624.906,525.027 623.5,525.5C 623.427,523.973 624.094,522.973 625.5,522.5 Z"/></g>
<g><path style="opacity:1" fill="#f1eaf2" d="M 177.5,523.5 C 185.16,533.495 192.826,543.495 200.5,553.5C 191.308,544.645 183.641,534.645 177.5,523.5 Z"/></g>
<g><path style="opacity:1" fill="#f1e9f2" d="M 200.5,553.5 C 207.5,559.833 214.167,566.5 220.5,573.5C 212.167,568.5 205.5,561.833 200.5,553.5 Z"/></g>
<g><path style="opacity:1" fill="#e9dae9" d="M 220.5,573.5 C 224.1,575.43 227.1,578.097 229.5,581.5C 225.9,579.57 222.9,576.903 220.5,573.5 Z"/></g>
<g><path style="opacity:1" fill="#ebddec" d="M 229.5,581.5 C 231.404,581.738 232.738,582.738 233.5,584.5C 231.596,584.262 230.262,583.262 229.5,581.5 Z"/></g>
<g><path style="opacity:1" fill="#e1cfe3" d="M 233.5,584.5 C 235.404,584.738 236.738,585.738 237.5,587.5C 235.596,587.262 234.262,586.262 233.5,584.5 Z"/></g>
<g><path style="opacity:1" fill="#e2cfe4" d="M 237.5,587.5 C 239.404,587.738 240.738,588.738 241.5,590.5C 239.596,590.262 238.262,589.262 237.5,587.5 Z"/></g>
<g><path style="opacity:1" fill="#ece2ed" d="M 282.5,620.5 C 284.404,620.738 285.738,621.738 286.5,623.5C 284.596,623.262 283.262,622.262 282.5,620.5 Z"/></g>
<g><path style="opacity:1" fill="#f3ebf3" d="M 286.5,623.5 C 290.732,625.4 294.399,628.067 297.5,631.5C 296.078,631.291 294.745,630.791 293.5,630C 290.712,628.281 288.379,626.115 286.5,623.5 Z"/></g>
<g><path style="opacity:1" fill="#ede4ed" d="M 297.5,631.5 C 299.027,631.427 300.027,632.094 300.5,633.5C 298.973,633.573 297.973,632.906 297.5,631.5 Z"/></g>
<g><path style="opacity:1" fill="#e8dbea" d="M 300.5,633.5 C 302.404,633.738 303.738,634.738 304.5,636.5C 302.596,636.262 301.262,635.262 300.5,633.5 Z"/></g>
<g><path style="opacity:1" fill="#efe6f0" d="M 304.5,636.5 C 306.404,636.738 307.738,637.738 308.5,639.5C 306.596,639.262 305.262,638.262 304.5,636.5 Z"/></g>
<g><path style="opacity:1" fill="#f2ecf3" d="M 308.5,639.5 C 312.732,641.4 316.399,644.067 319.5,647.5C 315.268,645.6 311.601,642.933 308.5,639.5 Z"/></g>
<g><path style="opacity:1" fill="#f3eef4" d="M 623.5,525.5 C 608.32,549.86 589.32,571.026 566.5,589C 513.601,626.277 461.268,664.277 409.5,703C 407.35,704.411 405.016,705.245 402.5,705.5C 458.766,664.355 515.099,623.188 571.5,582C 591.221,565.123 608.554,546.29 623.5,525.5 Z"/></g>
<g><path style="opacity:1" fill="#f0e9f3" d="M 319.5,647.5 C 322.37,648.433 324.704,650.1 326.5,652.5C 323.63,651.567 321.296,649.9 319.5,647.5 Z"/></g>
<g><path style="opacity:1" fill="#f0e9f0" d="M 326.5,652.5 C 328.404,652.738 329.738,653.738 330.5,655.5C 328.596,655.262 327.262,654.262 326.5,652.5 Z"/></g>
<g><path style="opacity:1" fill="#f1eaf1" d="M 330.5,655.5 C 333.37,656.433 335.704,658.1 337.5,660.5C 334.63,659.567 332.296,657.9 330.5,655.5 Z"/></g>
<g><path style="opacity:1" fill="#f0eaf2" d="M 337.5,660.5 C 339.404,660.738 340.738,661.738 341.5,663.5C 339.596,663.262 338.262,662.262 337.5,660.5 Z"/></g>
<g><path style="opacity:1" fill="#f3ebf4" d="M 341.5,663.5 C 344.37,664.433 346.704,666.1 348.5,668.5C 345.326,667.99 342.992,666.323 341.5,663.5 Z"/></g>
<g><path style="opacity:1" fill="#efe4ef" d="M 348.5,668.5 C 350.027,668.427 351.027,669.094 351.5,670.5C 349.973,670.573 348.973,669.906 348.5,668.5 Z"/></g>
<g><path style="opacity:1" fill="#eadbea" d="M 351.5,670.5 C 353.404,670.738 354.738,671.738 355.5,673.5C 353.596,673.262 352.262,672.262 351.5,670.5 Z"/></g>
<g><path style="opacity:1" fill="#f2ebf2" d="M 355.5,673.5 C 364.371,678.768 372.705,684.768 380.5,691.5C 376.738,689.587 373.071,687.421 369.5,685C 364.579,681.387 359.912,677.554 355.5,673.5 Z"/></g>
<g><path style="opacity:1" fill="#f3edf4" d="M 380.5,691.5 C 385.09,693.762 389.09,696.762 392.5,700.5C 388.738,698.587 385.071,696.421 381.5,694C 380.748,693.329 380.414,692.496 380.5,691.5 Z"/></g>
<g><path style="opacity:1" fill="#f1eaf1" d="M 392.5,700.5 C 395.37,701.433 397.704,703.1 399.5,705.5C 396.63,704.567 394.296,702.9 392.5,700.5 Z"/></g>
</svg>
