<?xml version="1.0" standalone="no"?>
<!DOCTYPE svg PUBLIC "-//W3C//DTD SVG 20010904//EN"
 "http://www.w3.org/TR/2001/REC-SVG-20010904/DTD/svg10.dtd">
<svg version="1.0" xmlns="http://www.w3.org/2000/svg"
 width="612.000000pt" height="408.000000pt" viewBox="0 0 612.000000 408.000000"
 preserveAspectRatio="xMidYMid meet">

<g transform="translate(0.000000,408.000000) scale(0.100000,-0.100000)"
fill="#000000" stroke="none">
<path d="M2805 3881 c-100 -28 -135 -44 -207 -98 -36 -28 -88 -56 -122 -66
-43 -14 -71 -31 -107 -67 -75 -75 -99 -134 -118 -289 -13 -101 -30 -130 -118
-201 -105 -84 -128 -156 -93 -292 25 -101 21 -117 -50 -192 -106 -112 -117
-218 -32 -316 55 -65 99 -82 237 -91 103 -7 169 -19 235 -45 8 -3 -51 -30
-135 -60 -82 -30 -179 -68 -215 -86 -107 -52 -189 -140 -253 -272 -25 -51 -31
-58 -37 -41 -16 43 -48 57 -206 90 -86 18 -164 31 -171 28 -32 -13 -32 -49 3
-209 19 -88 37 -168 39 -180 4 -19 14 -22 84 -28 43 -3 93 -11 111 -17 50 -18
62 -76 21 -99 -11 -5 -56 -5 -115 0 -62 6 -104 6 -115 0 -20 -12 -31 -10 137
-19 126 -6 146 -9 158 -26 22 -29 17 -54 -14 -72 -28 -16 -28 -17 -10 -35 10
-10 18 -27 18 -38 0 -34 -36 -43 -139 -37 -53 3 -88 3 -77 0 10 -3 28 -16 40
-30 17 -19 46 -30 149 -53 71 -15 130 -30 132 -32 2 -1 -18 -19 -43 -38 -41
-32 -51 -35 -106 -33 -34 1 -70 3 -81 5 -19 3 -20 -2 -19 -132 0 -75 6 -159
13 -190 56 -229 249 -313 391 -171 27 27 58 67 69 89 22 43 57 174 87 324 9
49 20 88 24 88 4 0 10 -20 13 -44 25 -178 18 -296 -33 -600 -17 -98 -30 -184
-30 -192 0 -12 110 -14 786 -14 l786 0 -6 27 c-3 16 -10 78 -16 138 -6 61 -13
124 -15 140 -11 69 -17 274 -11 318 l7 46 400 3 401 3 32 36 33 36 41 -43 c53
-56 150 -105 223 -111 52 -5 58 -8 72 -38 9 -18 19 -49 22 -69 l7 -36 -127 0
-127 0 6 -57 c10 -81 14 -91 39 -95 19 -3 24 -17 48 -137 19 -98 31 -137 44
-147 14 -11 62 -14 191 -14 212 0 207 -3 230 125 8 50 19 108 22 130 6 31 12
41 30 43 15 2 22 10 22 25 0 12 3 46 6 75 l7 52 -137 0 c-134 0 -136 0 -136
23 0 41 16 52 80 54 102 3 207 64 287 168 57 73 81 119 113 214 l29 86 -53 3
c-106 6 -243 -42 -333 -115 -88 -72 -141 -198 -129 -307 6 -63 -8 -126 -30
-126 -8 0 -16 31 -22 83 l-11 82 5 -83 c5 -81 5 -84 -16 -80 -18 2 -27 18 -46
78 -13 41 -24 98 -24 125 -1 132 -114 239 -286 271 -21 4 -42 12 -46 18 -4 6
-8 190 -8 408 l0 397 -22 26 c-13 14 -41 30 -63 35 -22 5 -172 10 -332 10
l-293 0 -24 48 c-46 90 -91 120 -296 196 -69 26 -141 54 -160 63 l-35 17 45 7
c25 5 97 6 161 2 127 -6 168 2 231 44 23 16 44 42 57 73 34 80 28 113 -48 229
-35 55 -41 72 -41 117 0 29 5 76 11 104 16 73 6 105 -64 216 l-62 99 0 185 c0
182 0 186 -28 242 -36 74 -94 130 -173 169 -34 17 -71 40 -81 51 -28 32 -90
68 -152 89 -86 30 -247 35 -336 10z m520 -363 c32 -34 67 -82 78 -106 41 -94
62 -493 32 -620 -35 -146 -117 -258 -227 -307 -55 -25 -68 -27 -152 -23 -98 5
-152 23 -234 79 -24 16 -47 28 -49 25 -3 -3 18 -28 46 -56 90 -90 217 -133
319 -107 31 8 33 7 30 -15 -4 -32 -79 -51 -168 -43 -94 9 -247 40 -304 62
l-50 18 3 65 c1 35 -1 121 -4 191 l-7 127 -42 6 c-92 14 -146 75 -146 164 0
46 4 58 30 84 27 27 36 30 71 25 23 -3 52 -16 65 -28 l24 -23 54 53 c62 61 97
121 126 213 l20 64 82 12 c112 16 193 57 271 137 34 34 65 63 68 64 4 0 33
-27 64 -61z m-205 -43 c0 -2 -10 -9 -22 -15 -22 -11 -22 -10 -4 4 21 17 26 19
26 11z m1317 -1586 c65 -22 64 -20 61 -562 l-3 -489 -28 -24 -28 -24 -775 0
-776 0 -29 29 -29 29 0 489 c0 522 1 525 50 550 33 17 1510 19 1557 2z m819
-1381 c-3 -13 -8 -40 -11 -60 l-6 -38 -288 0 -288 0 -7 38 c-3 20 -6 47 -6 60
l0 22 305 0 305 0 -4 -22z m-56 -120 c-2 -36 -48 -250 -56 -258 -5 -5 -90 -10
-188 -12 -165 -2 -180 0 -192 17 -8 10 -14 30 -14 44 0 14 -9 66 -20 115 -11
50 -20 94 -20 98 0 4 110 8 245 8 190 0 245 -3 245 -12z"/>
<path d="M3272 3289 c-14 -5 -22 -16 -20 -25 2 -12 19 -16 81 -17 66 -2 77 0
77 15 0 30 -87 48 -138 27z"/>
<path d="M2893 3260 c-34 -21 -47 -48 -15 -32 32 17 90 23 131 13 47 -10 66 3
36 26 -28 20 -114 16 -152 -7z"/>
<path d="M3178 3189 c-7 -18 9 -103 42 -221 12 -43 19 -82 15 -87 -3 -5 -19
-12 -35 -16 -38 -8 -49 -25 -16 -25 38 0 74 17 81 39 3 11 -10 72 -29 138 -20
65 -39 134 -44 153 -5 23 -10 29 -14 19z"/>
<path d="M3282 3166 c-21 -11 -15 -13 52 -13 62 0 74 3 65 14 -14 17 -87 16
-117 -1z"/>
<path d="M2928 3155 c-16 -9 -28 -17 -28 -18 0 -1 38 -2 85 -2 69 -1 83 2 72
12 -21 21 -98 26 -129 8z"/>
<path d="M3280 3125 c-17 -21 2 -65 29 -65 30 0 46 26 33 55 -13 28 -43 33
-62 10z"/>
<path d="M2940 3116 c-26 -32 7 -87 44 -73 23 9 21 64 -3 77 -25 13 -26 13
-41 -4z m50 -26 c0 -5 -2 -10 -4 -10 -3 0 -8 5 -11 10 -3 6 -1 10 4 10 6 0 11
-4 11 -10z"/>
<path d="M2546 3015 c12 -8 31 -37 43 -65 24 -55 35 -65 25 -22 -14 56 -44
102 -66 102 l-22 0 20 -15z"/>
<path d="M3017 2774 c-22 -22 67 -84 120 -84 36 0 93 35 93 56 0 12 -5 14 -17
8 -41 -17 -91 -16 -131 5 -44 22 -55 25 -65 15z"/>
<path d="M3944 1706 c-10 -26 4 -48 28 -44 17 2 23 10 23 28 0 18 -6 26 -23
28 -13 2 -25 -3 -28 -12z"/>
<path d="M3195 1695 c-48 -17 -71 -43 -86 -98 -19 -72 8 -149 63 -182 34 -20
128 -23 171 -6 26 10 27 13 27 91 l0 80 -59 0 c-52 0 -59 -3 -64 -22 -8 -30
-1 -38 34 -38 26 0 29 -3 29 -30 0 -23 -5 -31 -25 -36 -66 -16 -115 26 -115
98 0 39 5 54 25 74 22 22 33 25 79 22 35 -2 59 2 69 11 25 20 21 29 -20 40
-50 14 -80 13 -128 -4z"/>
<path d="M3676 1664 c-3 -9 -3 -20 0 -26 3 -5 -3 -12 -15 -15 -25 -6 -30 -53
-6 -53 10 0 15 -10 16 -27 2 -64 11 -119 22 -130 20 -20 61 -25 81 -10 24 17
15 47 -13 47 -24 0 -34 30 -29 81 3 29 7 34 31 37 23 3 28 8 25 25 -2 16 -11
23 -30 25 -24 3 -28 8 -28 33 0 24 -4 29 -24 29 -13 0 -27 -7 -30 -16z"/>
<path d="M3480 1619 c-42 -17 -60 -49 -60 -110 0 -48 4 -59 29 -83 22 -21 39
-28 73 -28 59 -1 92 16 78 41 -8 16 -17 18 -50 14 -38 -5 -70 7 -70 28 0 5 29
9 65 9 l65 0 0 43 c0 32 -6 49 -23 65 -28 26 -73 35 -107 21z m65 -52 c25 -19
10 -37 -31 -37 -38 0 -47 22 -16 39 22 14 25 13 47 -2z"/>
<path d="M4135 1616 c-21 -9 -35 -10 -46 -3 -9 6 -24 7 -33 4 -14 -6 -16 -21
-14 -109 l3 -103 28 -3 27 -3 0 66 c0 77 12 105 43 105 38 0 47 -19 47 -97 l0
-73 31 0 32 0 -6 88 c-6 106 -10 118 -49 131 -17 6 -31 11 -32 11 -1 -1 -14
-7 -31 -14z"/>
<path d="M3940 1510 l0 -111 28 3 27 3 0 105 0 105 -27 3 -28 3 0 -111z"/>
<path d="M4040 1165 l0 -165 30 0 29 0 3 83 3 82 35 0 35 0 3 -82 3 -83 29 0
30 0 0 90 c0 84 -2 93 -26 117 -25 25 -52 27 -96 8 -16 -6 -18 0 -18 54 l0 61
-30 0 -30 0 0 -165z"/>
<path d="M3082 1283 c3 -25 7 -28 46 -31 l42 -3 0 -125 0 -124 30 0 30 0 0
125 0 125 45 0 c43 0 45 1 45 30 l0 30 -121 0 -120 0 3 -27z"/>
<path d="M3375 1216 c-37 -16 -55 -52 -55 -112 0 -37 6 -51 29 -75 25 -25 37
-29 81 -29 44 0 56 4 81 29 24 24 29 38 29 76 0 60 -21 100 -61 114 -41 14
-67 13 -104 -3z m99 -77 c21 -60 -23 -107 -73 -79 -16 8 -21 20 -21 48 0 47
16 64 55 60 22 -2 32 -10 39 -29z"/>
<path d="M3875 1219 c-40 -23 -55 -52 -55 -107 0 -46 4 -58 29 -83 23 -23 38
-29 71 -29 57 0 83 15 70 40 -8 15 -17 18 -39 14 -46 -9 -71 10 -71 55 0 47
17 63 64 59 20 -1 41 3 48 10 30 30 -73 66 -117 41z"/>
<path d="M3580 1132 c0 -106 13 -132 66 -132 20 0 44 5 55 10 13 7 19 7 19 0
0 -5 11 -10 25 -10 l25 0 0 110 0 110 -25 0 c-24 0 -25 -2 -25 -69 0 -85 -19
-112 -64 -95 -13 5 -16 22 -16 85 l0 79 -30 0 -30 0 0 -88z"/>
<path d="M4155 3646 c-151 -49 -251 -160 -273 -302 -31 -197 85 -373 282 -429
167 -48 357 46 435 214 29 63 33 81 32 155 -1 112 -26 178 -96 254 -77 83
-146 116 -255 119 -50 2 -101 -3 -125 -11z m215 -169 c26 -13 58 -41 75 -66
27 -39 30 -50 30 -123 0 -77 -1 -80 -33 -109 -36 -33 -55 -35 -95 -14 -21 10
-34 12 -47 5 -106 -57 -200 107 -112 195 24 24 32 27 78 22 28 -3 57 -1 64 3
8 5 22 4 32 -1 15 -8 18 -23 18 -102 l0 -91 21 20 c48 49 31 149 -35 199 -92
70 -228 24 -266 -90 -22 -66 10 -147 72 -185 37 -23 122 -27 162 -9 20 9 29 9
41 -1 22 -18 19 -28 -17 -50 -42 -25 -145 -27 -195 -4 -82 40 -127 111 -128
204 0 53 5 73 27 110 64 110 192 146 308 87z"/>
<path d="M4236 3327 c-18 -13 -25 -74 -11 -96 10 -16 61 -13 79 5 22 21 20 60
-4 84 -23 23 -39 25 -64 7z"/>
<path d="M937 3472 c-15 -16 -17 -49 -17 -260 l0 -241 26 -20 c26 -20 38 -21
396 -21 l369 0 24 25 25 24 0 236 c0 222 -1 236 -20 255 -19 19 -33 20 -403
20 -359 0 -385 -1 -400 -18z m231 -176 c84 -69 162 -126 172 -126 17 0 239
170 316 242 27 25 44 28 44 8 0 -4 -49 -47 -110 -95 -60 -49 -110 -90 -110
-91 0 -2 50 -51 110 -110 97 -95 129 -133 101 -122 -4 2 -59 51 -121 110
l-113 107 -47 -40 c-25 -21 -57 -39 -69 -39 -13 0 -45 18 -72 41 l-48 40 -116
-112 c-79 -77 -119 -109 -126 -102 -7 7 27 45 106 119 l117 109 -25 20 c-13
11 -65 53 -115 94 -50 41 -89 78 -86 83 8 13 27 -1 192 -136z"/>
<path d="M4743 2691 c-96 -36 -170 -100 -219 -191 -16 -29 -19 -56 -19 -150 0
-110 1 -118 32 -176 90 -173 291 -257 466 -194 104 37 173 98 215 188 24 51
27 69 27 167 0 104 -2 114 -33 177 -37 77 -91 128 -172 166 -75 36 -219 42
-297 13z m50 -161 c37 -44 43 -84 18 -116 -31 -39 -26 -56 30 -118 55 -61 77
-67 116 -36 23 18 27 18 61 4 48 -20 82 -52 82 -79 0 -30 -73 -75 -124 -75
-78 0 -191 79 -259 183 -66 100 -71 170 -15 233 37 42 59 43 91 4z"/>
<path d="M4968 1551 c-40 -44 -88 -105 -107 -136 -71 -117 -96 -253 -67 -365
22 -84 44 -122 84 -140 17 -8 36 -26 41 -40 9 -23 9 -23 10 -4 1 12 11 28 24
36 114 76 201 288 182 447 -11 97 -67 281 -85 281 -5 0 -41 -36 -82 -79z"/>
<path d="M1480 1232 c0 -11 83 -22 155 -21 72 1 29 15 -72 23 -50 5 -83 4 -83
-2z"/>
</g>
</svg>
