<?xml version="1.0" standalone="no"?>
<!DOCTYPE svg PUBLIC "-//W3C//DTD SVG 20010904//EN"
 "http://www.w3.org/TR/2001/REC-SVG-20010904/DTD/svg10.dtd">
<svg version="1.0" xmlns="http://www.w3.org/2000/svg"
 width="512.000000pt" height="512.000000pt" viewBox="0 0 512.000000 512.000000"
 preserveAspectRatio="xMidYMid meet">

<g transform="translate(0.000000,512.000000) scale(0.100000,-0.100000)"
fill="#000000" stroke="none">
<path d="M2170 5110 c-165 -26 -326 -117 -472 -266 -124 -127 -217 -262 -312
-452 -51 -101 -60 -113 -79 -109 -12 3 -85 11 -162 18 -287 24 -542 -14 -738
-112 -358 -178 -481 -545 -336 -1002 43 -135 150 -346 252 -499 l85 -128 -82
-124 c-289 -432 -382 -830 -267 -1137 128 -340 533 -522 1064 -480 84 7 164
15 179 18 25 5 29 0 78 -98 199 -400 446 -641 740 -721 67 -18 243 -15 320 6
272 73 518 312 712 692 60 119 64 125 90 120 80 -15 306 -27 403 -21 317 19
536 102 692 262 85 86 154 215 178 328 19 92 19 266 0 363 -41 204 -146 442
-290 658 -47 69 -85 130 -85 134 0 4 37 63 83 131 208 313 309 591 309 849 0
140 -18 225 -73 337 -128 260 -404 404 -817 429 -93 6 -307 -6 -397 -22 -29
-5 -31 -3 -82 100 -195 393 -445 640 -718 711 -76 19 -204 26 -275 15z m241
-243 c36 -12 92 -38 124 -57 73 -44 205 -173 270 -264 56 -80 175 -284 175
-302 0 -6 -17 -15 -37 -19 -103 -19 -428 -127 -585 -195 -82 -35 -88 -36 -120
-22 -190 82 -480 182 -620 213 -32 6 -58 15 -58 18 0 14 125 231 168 291 101
141 249 274 357 320 108 46 222 52 326 17z m-1175 -800 c4 -4 -9 -61 -30 -126
-64 -206 -101 -373 -152 -686 -4 -21 -21 -43 -61 -75 -62 -51 -302 -284 -383
-374 l-53 -58 -21 27 c-48 64 -158 254 -195 339 -66 150 -93 256 -99 385 -5
131 6 198 50 285 74 147 254 251 503 290 46 7 433 1 441 -7z m2519 3 c111 -16
184 -37 273 -80 155 -74 248 -197 274 -363 31 -199 -57 -482 -238 -768 -36
-57 -68 -106 -70 -108 -2 -2 -71 65 -153 150 -82 85 -194 194 -249 242 l-100
88 -7 57 c-19 159 -95 493 -154 680 -20 65 -26 95 -18 97 43 15 349 18 442 5z
m-2165 -75 c119 -32 400 -126 400 -134 -1 -3 -69 -44 -153 -91 -84 -47 -235
-140 -336 -207 -101 -68 -184 -123 -186 -123 -15 0 124 527 152 573 7 11 20 9
123 -18z m1528 -107 c59 -189 118 -435 108 -446 -3 -2 -22 9 -43 25 -106 83
-442 293 -566 354 -37 19 -67 36 -67 40 0 14 460 157 511 159 11 0 26 -35 57
-132z m-692 -223 c177 -92 333 -184 489 -288 129 -86 333 -236 353 -260 22
-27 36 -238 36 -557 0 -319 -14 -530 -36 -557 -38 -46 -378 -283 -578 -403
-129 -77 -402 -220 -420 -220 -19 0 -324 164 -469 252 -139 84 -326 212 -452
310 l-86 66 -6 59 c-22 197 -29 503 -18 711 6 119 14 243 18 275 l6 58 81 63
c129 100 329 237 465 319 157 94 441 247 460 247 8 0 79 -34 157 -75z m-1411
-1104 l0 -329 -26 19 c-22 15 -139 139 -268 281 l-24 27 59 68 c65 74 248 263
255 263 2 0 4 -148 4 -329z m2811 23 c22 -32 19 -36 -154 -214 l-140 -145 0
335 -1 335 140 -143 c77 -79 147 -155 155 -168z m-3154 -334 c88 -95 297 -294
361 -342 11 -9 22 -52 36 -138 39 -239 80 -416 144 -612 17 -54 27 -101 23
-105 -4 -4 -110 -8 -234 -8 -205 0 -236 2 -317 23 -49 13 -127 41 -171 63
-364 173 -371 615 -19 1155 30 47 59 84 63 82 5 -2 56 -55 114 -118z m3379 32
c161 -251 242 -461 255 -657 18 -264 -107 -444 -372 -535 -111 -38 -245 -53
-435 -48 -97 3 -181 8 -187 12 -6 3 3 47 24 113 51 160 101 372 133 558 l27
166 105 93 c57 51 167 158 244 239 77 80 142 146 145 146 3 1 30 -38 61 -87z
m-2550 -724 c102 -68 253 -161 336 -208 84 -47 152 -88 153 -91 1 -17 -487
-166 -513 -156 -12 4 -55 133 -102 299 -16 58 -64 278 -61 278 1 0 85 -55 187
-122z m1714 35 c-45 -209 -131 -493 -149 -493 -55 0 -506 143 -506 160 0 5 39
29 88 55 133 72 283 164 437 269 77 52 141 93 143 91 3 -2 -3 -39 -13 -82z
m-590 -602 c94 -32 212 -69 263 -82 50 -13 92 -28 92 -34 0 -17 -120 -224
-175 -301 -67 -95 -198 -221 -275 -267 -188 -110 -375 -101 -554 27 -129 92
-263 258 -371 458 -34 64 -43 89 -33 92 7 3 76 23 153 44 149 43 340 109 470
165 l79 34 91 -39 c49 -21 167 -65 260 -97z"/>
<path d="M2138 2991 c-189 -61 -318 -235 -318 -431 0 -116 43 -222 129 -313
186 -199 515 -179 682 40 187 245 75 606 -219 702 -79 27 -195 27 -274 2z
m252 -239 c60 -37 102 -106 108 -177 4 -45 0 -65 -23 -111 -106 -217 -425
-145 -425 96 0 74 23 124 81 173 73 63 174 70 259 19z"/>
</g>
</svg>
