<?xml version="1.0" encoding="UTF-8"?>
<svg version="1.1" xmlns="http://www.w3.org/2000/svg" width="512" height="512">
<path d="M0 0 C23.98850235 17.40071044 38.8506927 42.4177468 51.51171875 68.67578125 C52.29538818 68.60721924 53.07905762 68.53865723 53.88647461 68.46801758 C77.44675152 66.57974684 103.68249315 64.7245579 126.51171875 71.67578125 C127.23633301 71.89540527 127.96094727 72.1150293 128.70751953 72.34130859 C142.54440672 76.71427249 154.20588779 83.4048262 164.51171875 93.67578125 C165.22199219 94.36285156 165.93226563 95.04992187 166.6640625 95.7578125 C180.47409597 110.04496805 184.13665362 128.72735285 183.98461914 147.90698242 C183.72697801 157.56817586 182.35166478 166.45302932 179.51171875 175.67578125 C179.30272949 176.36897461 179.09374023 177.06216797 178.87841797 177.77636719 C172.1437888 199.57941383 161.24084945 220.73328093 146.77734375 238.4140625 C145.33136964 240.57797753 145.33136964 240.57797753 145.4765625 242.97265625 C146.99786577 246.94526706 149.37853887 250.15313946 151.82421875 253.61328125 C171.75085588 282.77267376 188.32115619 318.40964159 183.015625 354.671875 C179.25632318 373.72325201 169.66705014 390.13900561 153.57910156 401.27026367 C136.52016564 412.50286575 116.0516995 417.81417322 95.7265625 417.84375 C94.90781143 417.8470784 94.08906036 417.8504068 93.24549866 417.85383606 C91.52019812 417.85887004 89.79488796 417.86124548 88.06958008 417.86108398 C85.48046029 417.86325505 82.89177819 417.88140611 80.30273438 417.90039062 C70.19145132 417.93342099 60.49439977 417.34286726 50.51171875 415.67578125 C50.32971924 416.77345825 50.32971924 416.77345825 50.14404297 417.89331055 C49.10496361 422.46566091 46.81513995 426.36261824 44.63671875 430.48828125 C44.14494141 431.42027344 43.65316406 432.35226562 43.14648438 433.3125 C35.80061724 446.9748771 26.88480991 459.16910378 16.51171875 470.67578125 C15.774375 471.49691406 15.03703125 472.31804687 14.27734375 473.1640625 C0.05178861 488.19434795 -19.43772462 498.48338714 -40.22045898 499.19946289 C-61.41694918 499.46126992 -78.3941585 492.69578378 -94.48828125 478.67578125 C-95.71998047 477.64324219 -95.71998047 477.64324219 -96.9765625 476.58984375 C-115.20134298 460.88762231 -127.66074761 439.36916897 -137.48828125 417.67578125 C-137.48828125 417.01578125 -137.48828125 416.35578125 -137.48828125 415.67578125 C-138.34631348 415.81653076 -139.2043457 415.95728027 -140.08837891 416.10229492 C-149.87541526 417.57196967 -159.45778375 418.0174431 -169.34863281 417.99145508 C-171.85395841 417.98829302 -174.35810008 418.01187134 -176.86328125 418.03710938 C-204.32531197 418.14506582 -231.51596868 411.15615096 -251.62890625 391.59375 C-265.6711902 376.72072024 -271.13119884 357.66344326 -270.73046875 337.515625 C-268.77896772 306.57489085 -255.48873229 273.50313918 -235.72900391 249.54248047 C-234.15642892 247.63353058 -232.70769288 245.82790807 -231.48828125 243.67578125 C-232.08261328 239.74752953 -234.50481851 237.1411578 -236.92578125 234.05078125 C-258.17692403 205.33093973 -274.83156003 167.71665401 -269.71484375 131.36254883 C-266.71036794 112.674292 -257.54299768 97.25300938 -242.48828125 85.67578125 C-213.13150171 65.03254264 -174.12743945 63.71171434 -139.7421875 69.2734375 C-138.99839844 69.40621094 -138.25460938 69.53898437 -137.48828125 69.67578125 C-137.25882813 68.88816406 -137.029375 68.10054688 -136.79296875 67.2890625 C-125.8092189 36.8699948 -102.58161937 7.27421781 -73.48828125 -7.32421875 C-49.163579 -18.59500057 -21.81510521 -15.01315165 0 0 Z M-82.30078125 28.17578125 C-95.55646202 40.82893107 -107.17044392 57.39564239 -113.48828125 74.67578125 C-112.91311768 74.83546387 -112.3379541 74.99514648 -111.74536133 75.15966797 C-99.21231747 78.66532849 -86.80150291 82.45907835 -74.48828125 86.67578125 C-72.63988647 87.30818726 -72.63988647 87.30818726 -70.75415039 87.95336914 C-62.8209042 90.72244551 -55.26809079 93.84802526 -47.84765625 97.7890625 C-43.00017194 99.06857289 -39.98971552 97.58591125 -35.48828125 95.67578125 C-33.85808617 95.02731043 -32.22787741 94.378874 -30.59765625 93.73046875 C-29.73744873 93.38000488 -28.87724121 93.02954102 -27.9909668 92.66845703 C-13.4221355 86.75305928 1.457391 82.16497762 16.51171875 77.67578125 C18.46362362 77.09011683 20.4154553 76.50420835 22.3671875 75.91796875 C23.74867038 75.50381438 25.13016899 75.08971246 26.51171875 74.67578125 C25.06197327 69.78289025 23.01661776 65.58552591 20.51171875 61.17578125 C19.91786377 60.13019043 19.91786377 60.13019043 19.31201172 59.06347656 C7.18241568 38.09463354 -9.36859511 17.31940284 -33.77734375 10.796875 C-52.92361172 7.16411055 -68.35191663 15.77679047 -82.30078125 28.17578125 Z M-233.04296875 109.00390625 C-240.76291538 117.93400667 -245.60488658 127.74995322 -246.48828125 139.67578125 C-246.53984375 140.35125 -246.59140625 141.02671875 -246.64453125 141.72265625 C-247.75477728 169.29376599 -233.31837177 197.95030565 -217.48828125 219.67578125 C-216.51020363 220.69723324 -215.51621452 221.70451754 -214.48828125 222.67578125 C-213.29731374 221.51265454 -212.11075421 220.34501453 -210.92578125 219.17578125 C-210.26449219 218.52609375 -209.60320312 217.87640625 -208.921875 217.20703125 C-206.94267117 215.14840512 -205.07121159 213.05881333 -203.20703125 210.8984375 C-199.49291055 206.62398614 -195.56525277 202.60452536 -191.55078125 198.61328125 C-190.55401367 197.61071289 -190.55401367 197.61071289 -189.53710938 196.58789062 C-186.31188676 193.3689245 -183.04423439 190.23723311 -179.609375 187.2421875 C-178.9587207 186.6637207 -178.30806641 186.08525391 -177.63769531 185.48925781 C-175.48828125 183.67578125 -175.48828125 183.67578125 -172.87402344 181.81152344 C-165.83025225 176.42691755 -163.96533711 171.31531007 -162.83178711 162.8605957 C-162.74540985 162.12700836 -162.65903259 161.39342102 -162.57003784 160.63760376 C-162.10729158 156.72893716 -161.50157452 152.84133383 -160.91796875 148.94921875 C-160.80430466 148.1651918 -160.69064056 147.38116486 -160.5735321 146.57337952 C-159.46649964 139.09116441 -157.81267132 131.815401 -155.92578125 124.48828125 C-155.48637207 122.77946777 -155.48637207 122.77946777 -155.03808594 121.03613281 C-153.03893459 113.44115268 -150.82903685 105.93160747 -148.3359375 98.484375 C-147.34381349 95.6860605 -147.34381349 95.6860605 -147.48828125 92.67578125 C-172.32731205 85.44877718 -213.84503193 90.30853322 -233.04296875 109.00390625 Z M60.51171875 92.67578125 C62.06590369 98.45729112 63.66238402 104.22283386 65.34375 109.96875 C69.90440902 125.73978834 73.42312996 141.46216149 76.28515625 157.62109375 C76.49897949 158.82056641 76.71280273 160.02003906 76.93310547 161.25585938 C77.30463581 163.4518075 77.64259743 165.65384829 77.93798828 167.86132812 C78.79489495 173.84664583 79.70696583 176.9984572 84.63671875 180.92578125 C85.54679687 181.6734375 86.456875 182.42109375 87.39453125 183.19140625 C88.42320312 184.01125 89.451875 184.83109375 90.51171875 185.67578125 C97.07001569 191.11702095 103.08661037 197.09635503 109.09448242 203.12817383 C110.7031421 204.74221773 112.31711123 206.35081428 113.93164062 207.95898438 C114.97297719 209.00098145 116.01400366 210.04328853 117.0546875 211.0859375 C117.9830542 212.01543213 118.9114209 212.94492676 119.86791992 213.90258789 C122.56633656 216.7330722 125.04326886 219.64514002 127.51171875 222.67578125 C131.35479145 219.10192555 134.17770331 215.40803249 136.82421875 210.86328125 C137.20811768 210.21166016 137.5920166 209.56003906 137.98754883 208.88867188 C151.36162244 185.87218521 163.98890848 159.29421473 158.81640625 132.0078125 C155.17749117 118.96581855 148.27852144 109.06058892 136.65625 101.921875 C113.90275769 89.92895105 85.56082844 88.16311721 60.51171875 92.67578125 Z M-123.48828125 97.67578125 C-127.4026633 108.79355276 -130.97981888 119.92978846 -133.86328125 131.36328125 C-134.11352051 132.34103516 -134.36375977 133.31878906 -134.62158203 134.32617188 C-136.12032154 140.42944742 -137.04532986 146.40690743 -137.48828125 152.67578125 C-132.30385299 149.84268176 -127.44108049 146.66642523 -122.55688477 143.3449707 C-106.7015105 132.56311017 -90.26793541 122.93557804 -73.48828125 113.67578125 C-73.48828125 113.01578125 -73.48828125 112.35578125 -73.48828125 111.67578125 C-77.484013 110.31866712 -81.48190302 108.96814971 -85.48168945 107.62304688 C-86.83480111 107.16706022 -88.18736511 106.70944434 -89.53930664 106.25 C-106.17716427 99.89879453 -106.17716427 99.89879453 -123.48828125 97.67578125 Z M24.26171875 99.67578125 C23.44703125 99.89218262 22.63234375 100.10858398 21.79296875 100.33154297 C14.63343462 102.28353422 7.56394051 104.49332324 0.51171875 106.80078125 C-0.53274414 107.13722656 -1.57720703 107.47367188 -2.65332031 107.8203125 C-4.11850098 108.30951172 -4.11850098 108.30951172 -5.61328125 108.80859375 C-6.91652344 109.24002686 -6.91652344 109.24002686 -8.24609375 109.68017578 C-10.56107577 110.70810442 -11.84472451 111.7737403 -13.48828125 113.67578125 C-12.52792969 114.16304687 -11.56757813 114.6503125 -10.578125 115.15234375 C9.57213134 125.5204846 29.80113288 137.26847475 47.62036133 151.34106445 C49.39825123 152.86797448 49.39825123 152.86797448 51.51171875 152.67578125 C49.44672164 140.88356091 46.73808036 129.37730865 43.44921875 117.86328125 C43.10890625 116.66606445 42.76859375 115.46884766 42.41796875 114.23535156 C40.76157109 108.53624793 39.03161081 103.05312101 36.51171875 97.67578125 C32.16111182 97.67578125 28.42617452 98.56658121 24.26171875 99.67578125 Z M-51.51953125 128.53515625 C-52.10323486 128.83533157 -52.68693848 129.1355069 -53.28833008 129.44477844 C-55.19340854 130.42897767 -57.09119151 131.42627928 -58.98828125 132.42578125 C-59.63966064 132.76624481 -60.29104004 133.10670837 -60.9621582 133.45748901 C-84.99722647 146.02854956 -107.79896792 160.61214382 -129.5625 176.8046875 C-131.92441278 178.56179629 -134.2486558 180.14726798 -136.7578125 181.703125 C-140.94509625 184.44073398 -143.06700799 186.23001077 -144.4921875 191.12109375 C-145.0316243 194.3976878 -145.26568389 197.66551792 -145.38012695 200.98510742 C-145.49114668 203.74706771 -145.67614357 206.50052529 -145.86404419 209.25814819 C-146.5835007 220.16741965 -146.6864253 231.05825819 -146.67578125 241.98828125 C-146.67584167 242.9444635 -146.6759021 243.90064575 -146.67596436 244.88580322 C-146.66513216 256.96723044 -146.46825645 268.99685823 -145.61328125 281.05078125 C-145.53489014 282.16493408 -145.45649902 283.27908691 -145.37573242 284.42700195 C-145.02117998 292.94837903 -145.02117998 292.94837903 -141.05615234 300.11865234 C-139.13379499 301.73389688 -137.15184845 303.20994563 -135.11328125 304.67578125 C-134.35869629 305.23338135 -133.60411133 305.79098145 -132.82666016 306.36547852 C-130.39268492 308.152968 -127.94204329 309.91557862 -125.48828125 311.67578125 C-124.70001953 312.24925293 -123.91175781 312.82272461 -123.09960938 313.41357422 C-105.16771212 326.44256366 -86.26329721 337.92914117 -66.7578125 348.44189453 C-64.28058464 349.78870064 -61.82249858 351.16748267 -59.36328125 352.546875 C-57.65548146 353.48664731 -55.94716066 354.42547354 -54.23828125 355.36328125 C-53.45163086 355.81026367 -52.66498047 356.25724609 -51.85449219 356.71777344 C-48.60896611 358.47184616 -46.28896982 359.65758378 -42.56640625 359.7421875 C-38.01198099 358.1643219 -33.77835179 356.11431486 -29.48828125 353.92578125 C-28.04219482 353.19367432 -28.04219482 353.19367432 -26.56689453 352.44677734 C-3.799888 340.7584083 17.91223762 326.84403197 38.51171875 311.67578125 C39.20378418 311.17095215 39.89584961 310.66612305 40.60888672 310.14599609 C42.81100135 308.53804884 45.00609282 306.92096166 47.19921875 305.30078125 C48.22547363 304.55042603 48.22547363 304.55042603 49.27246094 303.78491211 C49.9121582 303.30803955 50.55185547 302.83116699 51.2109375 302.33984375 C51.77643311 301.9217041 52.34192871 301.50356445 52.92456055 301.07275391 C56.41474438 298.00079084 57.86969914 295.44061908 58.23339844 290.80078125 C58.35258636 289.34514771 58.35258636 289.34514771 58.47418213 287.86010742 C58.57784088 286.28386597 58.57784088 286.28386597 58.68359375 284.67578125 C58.80296295 283.01929565 58.80296295 283.01929565 58.92474365 281.3293457 C59.69654521 269.6363777 59.8142876 257.95198652 59.77246094 246.23730469 C59.76172412 242.67756128 59.77244643 239.11832225 59.78515625 235.55859375 C59.79435938 223.93063747 59.53805263 212.34121188 58.74609375 200.73828125 C58.68536682 199.69583252 58.62463989 198.65338379 58.56207275 197.5793457 C58.02754315 190.7978103 56.77854591 187.48015157 51.51977539 182.96582031 C50.82746826 182.46276367 50.13516113 181.95970703 49.421875 181.44140625 C48.25628052 180.58772461 48.25628052 180.58772461 47.06713867 179.71679688 C46.2444751 179.12576172 45.42181152 178.53472656 44.57421875 177.92578125 C43.71739502 177.30380859 42.86057129 176.68183594 41.9777832 176.04101562 C39.49501804 174.24418868 37.00482496 172.45822097 34.51171875 170.67578125 C33.91649414 170.24716797 33.32126953 169.81855469 32.70800781 169.37695312 C11.37231669 154.05150353 -11.42116791 140.74082843 -34.80078125 128.80078125 C-35.43419434 128.47287598 -36.06760742 128.1449707 -36.72021484 127.80712891 C-42.61974408 124.87294547 -45.82811718 125.58972051 -51.51953125 128.53515625 Z M82.51171875 210.67578125 C82.51171875 231.79578125 82.51171875 252.91578125 82.51171875 274.67578125 C87.20035943 270.65694638 91.68013694 266.66964789 96.01171875 262.30078125 C96.57487793 261.73496338 97.13803711 261.16914551 97.71826172 260.58618164 C101.82398069 256.43365865 105.82805382 252.21195149 109.51171875 247.67578125 C110.35476563 246.65097656 110.35476563 246.65097656 111.21484375 245.60546875 C112.79153908 243.73421747 112.79153908 243.73421747 112.13671875 241.36328125 C110.25115133 238.24484283 108.03870289 236.04562091 105.4140625 233.5390625 C103.62024562 231.78207964 102.00553227 229.96832844 100.38671875 228.05078125 C96.97208102 224.08792186 93.32772394 220.37881905 89.63671875 216.67578125 C89.0526123 216.08716309 88.46850586 215.49854492 87.86669922 214.89208984 C85.56232816 212.01713416 85.56232816 212.01713416 82.51171875 210.67578125 Z M-179.48828125 219.67578125 C-181.31498736 221.65596062 -183.06520324 223.68143151 -184.8046875 225.73828125 C-186.47843451 227.6644495 -188.22899586 229.45237347 -190.05078125 231.23828125 C-193.42045544 234.54696586 -196.45825411 238.0545293 -199.48828125 241.67578125 C-197.83781675 245.76735193 -194.91708432 248.65525866 -191.92578125 251.80078125 C-190.83649478 252.95893536 -189.74796011 254.11779698 -188.66015625 255.27734375 C-188.12197266 255.85000977 -187.58378906 256.42267578 -187.02929688 257.01269531 C-184.17874253 260.08905403 -181.44926498 263.27415551 -178.71875 266.45703125 C-175.89849973 269.38213061 -175.89849973 269.38213061 -169.48828125 273.67578125 C-169.48828125 253.21578125 -169.48828125 232.75578125 -169.48828125 211.67578125 C-172.73666898 211.67578125 -177.23912381 217.53981192 -179.48828125 219.67578125 Z M-215.48828125 262.67578125 C-233.19273496 287.46985027 -249.78231285 317.93535551 -246.17578125 349.40234375 C-244.73637876 357.70461167 -241.43723342 364.87097202 -236.48828125 371.67578125 C-235.95203125 372.48015625 -235.41578125 373.28453125 -234.86328125 374.11328125 C-220.36534264 389.75579396 -197.7157108 393.50487638 -177.42578125 394.58691406 C-167.6493893 394.88267592 -157.04507352 395.0004064 -147.48828125 392.67578125 C-148.7970452 386.3923788 -150.42975617 380.26285441 -152.20458984 374.09594727 C-155.5595574 362.38684109 -158.49178021 350.6854334 -160.86328125 338.73828125 C-161.10143555 337.53856689 -161.33958984 336.33885254 -161.58496094 335.1027832 C-162.95832217 327.96596192 -164.0321201 320.85246064 -164.83789062 313.62841797 C-165.90354741 308.79056019 -168.66263981 306.56205727 -172.48828125 303.67578125 C-173.72379322 302.59969018 -174.95275219 301.51603889 -176.17578125 300.42578125 C-176.84351563 299.84828125 -177.51125 299.27078125 -178.19921875 298.67578125 C-188.98310973 289.25367855 -199.72848273 279.49197684 -208.85546875 268.4296875 C-210.88221804 266.25262905 -213.13614707 264.48971524 -215.48828125 262.67578125 Z M127.51171875 262.67578125 C126.92390625 263.33578125 126.33609375 263.99578125 125.73046875 264.67578125 C119.03681948 272.09624335 112.07404162 279.24964614 105.02929688 286.33544922 C103.98993757 287.38155344 102.95228867 288.42936029 101.91650391 289.47900391 C95.80745092 295.66311153 89.69229086 301.34677569 82.69360352 306.53417969 C78.78553826 310.37009201 78.29605342 315.23885074 77.50390625 320.48046875 C77.32601563 321.60549805 77.148125 322.73052734 76.96484375 323.88964844 C76.67867188 325.70190918 76.67867188 325.70190918 76.38671875 327.55078125 C72.74484622 349.60996285 67.19406415 371.34367863 60.51171875 392.67578125 C63.80258719 393.01731217 67.09450952 393.34744771 70.38671875 393.67578125 C71.30453125 393.77117187 72.22234375 393.8665625 73.16796875 393.96484375 C96.60829885 396.27586221 123.35879222 393.97608431 142.65625 379.28125 C152.37108843 370.81490486 158.40389182 361.51615926 159.74365234 348.40625 C160.51517942 336.35387743 159.11235362 325.17225276 155.51171875 313.67578125 C155.20621094 312.69496582 155.20621094 312.69496582 154.89453125 311.69433594 C149.36098327 294.52155045 140.31432245 278.09310235 129.51171875 263.67578125 C128.52171875 263.18078125 128.52171875 263.18078125 127.51171875 262.67578125 Z M-137.48828125 332.67578125 C-136.97122985 339.99335617 -135.68047429 346.88800606 -133.86328125 353.98828125 C-133.60401855 355.01630859 -133.34475586 356.04433594 -133.07763672 357.10351562 C-130.39701233 367.47007964 -127.04261848 377.58062224 -123.48828125 387.67578125 C-115.73124789 387.11523049 -108.72256819 385.19333397 -101.30078125 382.92578125 C-99.51353638 382.38824219 -99.51353638 382.38824219 -97.69018555 381.83984375 C-89.52849549 379.36197894 -81.45070429 376.7371195 -73.48828125 373.67578125 C-73.48828125 373.01578125 -73.48828125 372.35578125 -73.48828125 371.67578125 C-74.45145264 371.14960205 -74.45145264 371.14960205 -75.43408203 370.61279297 C-94.8603027 359.9630428 -113.69131185 348.61283866 -131.83227539 335.87426758 C-134.43560808 333.66737359 -134.43560808 333.66737359 -137.48828125 332.67578125 Z M43.76171875 336.80078125 C29.15803468 347.43306759 13.72334441 356.76637795 -2.07592773 365.5012207 C-2.98802002 366.00613037 -3.9001123 366.51104004 -4.83984375 367.03125 C-5.64244629 367.47106201 -6.44504883 367.91087402 -7.27197266 368.36401367 C-9.47320476 369.66685792 -11.47355964 371.10273312 -13.48828125 372.67578125 C-5.21257249 376.30365584 3.10942107 379.27062429 11.76171875 381.86328125 C12.880625 382.20552734 13.99953125 382.54777344 15.15234375 382.90039062 C18.26653409 383.84603215 21.38645189 384.76750718 24.51171875 385.67578125 C25.30384766 385.91248535 26.09597656 386.14918945 26.91210938 386.39306641 C30.88082514 387.50426962 33.53640814 387.62364171 37.51171875 386.67578125 C47.22034573 360.16393122 47.22034573 360.16393122 51.51171875 332.67578125 C48.31637751 332.67578125 46.23847222 334.95157999 43.76171875 336.80078125 Z M-68.00488281 396.11035156 C-73.25513672 398.46980124 -78.63939395 400.28683565 -84.11328125 402.05078125 C-85.08555664 402.36982422 -86.05783203 402.68886719 -87.05957031 403.01757812 C-95.79225131 405.84835545 -104.6105525 408.34425653 -113.48828125 410.67578125 C-106.37903696 425.59163438 -98.52616079 439.24878082 -87.48828125 451.67578125 C-86.7303125 452.52914062 -85.97234375 453.3825 -85.19140625 454.26171875 C-74.72079431 465.38246672 -60.70765644 474.78656715 -45.0625 475.6953125 C-27.8870268 475.56499783 -13.33406824 466.52930552 -1.48828125 454.67578125 C7.56407065 445.37583333 26.51171875 424.22024445 26.51171875 410.67578125 C25.95637451 410.51086182 25.40103027 410.34594238 24.82885742 410.17602539 C13.11066691 406.683344 1.44005709 403.05812728 -10.17578125 399.23828125 C-11.89450439 398.68877808 -11.89450439 398.68877808 -13.64794922 398.12817383 C-18.90003638 396.40686059 -23.82259446 394.62746601 -28.66015625 391.9375 C-43.56138003 383.86934221 -53.38204812 389.24477673 -68.00488281 396.11035156 Z " fill="#883293" transform="translate(270.48828125,13.32421875)"/>
<path d="M0 0 C8.77973037 6.80757796 15.76703616 16.34730818 18.0625 27.37890625 C19.72336633 41.59865225 18.27267274 54.83066779 9.3203125 66.5390625 C2.98116731 73.86987595 -3.55123618 78.46011284 -12.65234375 81.8203125 C-13.31878906 82.06652344 -13.98523438 82.31273437 -14.671875 82.56640625 C-25.49677572 85.87084963 -38.40713379 84.43279847 -48.44921875 79.42578125 C-50.92536343 77.97892156 -53.2959635 76.45366295 -55.65234375 74.8203125 C-56.55984375 74.2015625 -57.46734375 73.5828125 -58.40234375 72.9453125 C-68.3150482 63.58331386 -73.4467907 51.45786295 -73.96484375 37.9453125 C-73.68683753 26.8598146 -69.83765201 14.65841127 -62.28125 6.3203125 C-44.50847633 -10.04598268 -20.77494386 -13.44459782 0 0 Z M-44.02734375 23.0703125 C-48.02840444 28.31961496 -49.98863359 33.16585 -49.65234375 39.8203125 C-48.71273397 46.39758095 -45.60672452 51.27974644 -40.71484375 55.6953125 C-35.05024528 59.62585022 -29.44017536 60.84447971 -22.65234375 59.8203125 C-15.5599146 57.61663165 -11.51734326 54.22509923 -7.7109375 47.90625 C-4.82229871 42.21424589 -4.62822786 36.23236692 -6.453125 30.15234375 C-9.34545389 23.58248327 -13.29466342 20.04677574 -19.65234375 16.8203125 C-28.56501048 13.84942359 -37.62931191 16.16675716 -44.02734375 23.0703125 Z " fill="#883293" transform="translate(254.65234375,218.1796875)"/>
</svg>
