<?xml version="1.0" encoding="UTF-8"?>
<svg version="1.1" xmlns="http://www.w3.org/2000/svg" width="512" height="512">
<path d="M0 0 C1.79849458 -0.00417658 3.59698652 -0.00965587 5.3954736 -0.01631981 C10.32085174 -0.03075059 15.2460622 -0.02653707 20.17144942 -0.019153 C25.48990552 -0.01441778 30.80832553 -0.02693432 36.12677002 -0.03717041 C46.5395664 -0.0543568 56.95230243 -0.05519874 67.36510931 -0.04995751 C75.8296869 -0.04591427 84.29424666 -0.0473612 92.75882339 -0.05270576 C93.96406132 -0.05345419 95.16929925 -0.05420261 96.41105954 -0.05497371 C98.85958743 -0.0565052 101.30811531 -0.05804355 103.75664319 -0.05958868 C126.71278425 -0.07331315 149.66889121 -0.0678764 172.62503149 -0.05640347 C193.61960079 -0.04647123 214.61408196 -0.05941173 235.60863768 -0.08333766 C257.17417803 -0.10772884 278.73967734 -0.11733647 300.30523121 -0.11068493 C312.40932282 -0.10719275 324.51334665 -0.10942476 336.61742783 -0.12693596 C346.9213587 -0.14165813 357.22517406 -0.14229309 367.52910267 -0.12486505 C372.78427263 -0.11635288 378.03923625 -0.11421097 383.29439545 -0.1295166 C388.10955986 -0.14336693 392.92434121 -0.13859592 397.73948349 -0.11927737 C399.47693595 -0.11551814 401.21441911 -0.11843708 402.9518442 -0.12888902 C419.53234718 -0.22150315 431.70268551 3.22038214 444.07595825 14.70018005 C455.17506117 26.42753408 456.77700485 39.34804006 456.71363831 54.84687805 C456.71781568 56.51337928 456.72329541 58.17987767 456.72995812 59.84637082 C456.74437851 64.40690288 456.74017867 68.96725371 456.7327913 73.52779555 C456.72805349 78.45361118 456.74057492 83.37938794 456.75080872 88.30519104 C456.76799006 97.94795778 456.76883809 107.59065933 456.76359581 117.2334374 C456.75955162 125.07253865 456.76100064 132.91162065 456.76634407 140.75072098 C456.76709249 141.86714734 456.76784091 142.98357371 456.76861202 144.13383118 C456.77014352 146.40197507 456.77168187 148.67011895 456.77322698 150.93826284 C456.78694964 172.20048087 456.78151599 193.46266209 456.77004177 214.72487928 C456.76010981 234.16748494 456.77304986 253.60999544 456.79697596 273.05258642 C456.821371 293.02707005 456.83097382 313.00150936 456.82432324 332.97600758 C456.8208319 344.18583959 456.82305747 355.39559842 456.84057426 366.60541916 C456.85530127 376.14811888 456.85592511 385.69069387 456.83850335 395.23339115 C456.82999513 400.09971572 456.82783956 404.96581752 456.84315491 409.83213043 C456.85701711 414.29202429 456.85221916 418.75150485 456.83291567 423.21137489 C456.82916006 424.8196222 456.83206493 426.42790274 456.84252732 428.0361204 C456.94002209 444.17782028 453.15237333 456.13182111 442.01345825 468.13768005 C429.90930363 479.59339782 416.52058451 480.83536746 400.6519165 480.77536011 C398.85342193 480.77953669 397.05492999 480.78501598 395.2564429 480.79167992 C390.33106477 480.8061107 385.4058543 480.80189718 380.48046708 480.79451311 C375.16201098 480.78977789 369.84359097 480.80229443 364.52514648 480.81253052 C354.1123501 480.82971691 343.69961407 480.83055885 333.28680719 480.82531761 C324.82222961 480.82127438 316.35766984 480.82272131 307.89309311 480.82806587 C306.68785518 480.82881429 305.48261726 480.82956272 304.24085697 480.83033382 C301.79232908 480.83186531 299.34380119 480.83340366 296.89527331 480.83494879 C273.93913226 480.84867326 250.98302529 480.84323651 228.02688502 480.83176357 C207.03231571 480.82183133 186.03783454 480.83477183 165.04327883 480.85869776 C143.47773847 480.88308894 121.91223916 480.89269658 100.34668529 480.88604504 C88.24259368 480.88255286 76.13856985 480.88478486 64.03448868 480.90229607 C53.73055781 480.91701824 43.42674244 480.9176532 33.12281384 480.90022516 C27.86764387 480.89171299 22.61268026 480.88957107 17.35752106 480.90487671 C12.54235664 480.91872703 7.72757529 480.91395603 2.91243301 480.89463747 C1.17498056 480.89087824 -0.56250261 480.89379719 -2.2999277 480.90424912 C-18.88043068 480.99686325 -31.050769 477.55497796 -43.42404175 466.07518005 C-54.52314466 454.34782603 -56.12508834 441.42732005 -56.0617218 425.92848206 C-56.06589918 424.26198082 -56.0713789 422.59548244 -56.07804161 420.92898929 C-56.09246201 416.36845722 -56.08826216 411.8081064 -56.0808748 407.24756455 C-56.07613699 402.32174893 -56.08865841 397.39597216 -56.09889221 392.47016907 C-56.11607356 382.82740233 -56.11692159 373.18470077 -56.11167931 363.5419227 C-56.10763512 355.70282146 -56.10908413 347.86373946 -56.11442757 340.02463913 C-56.11517599 338.90821276 -56.11592441 337.7917864 -56.11669551 336.64152893 C-56.11822702 334.37338504 -56.11976536 332.10524115 -56.12131048 329.83709727 C-56.13503314 308.57487924 -56.12959949 287.31269802 -56.11812527 266.05048083 C-56.10819331 246.60787516 -56.12113336 227.16536467 -56.14505946 207.72277369 C-56.16945449 187.74829006 -56.17905732 167.77385075 -56.17240673 147.79935253 C-56.1689154 136.58952051 -56.17114097 125.37976169 -56.18865776 114.16994095 C-56.20338476 104.62724123 -56.2040086 95.08466624 -56.18658685 85.54196896 C-56.17807862 80.67564439 -56.17592306 75.80954259 -56.1912384 70.94322968 C-56.20510061 66.48333582 -56.20030266 62.02385526 -56.18099917 57.56398521 C-56.17724356 55.95573791 -56.18014842 54.34745737 -56.19061082 52.73923971 C-56.28810558 36.59753983 -52.50045683 24.643539 -41.36154175 12.63768005 C-29.25738713 1.18196229 -15.868668 -0.06000736 0 0 Z M10.95095825 72.01268005 C8.74687932 76.59038245 8.52879435 80.39320416 9.32595825 85.38768005 C11.65564756 90.22626554 14.48737277 93.05799075 19.32595825 95.38768005 C24.32043414 96.18484396 28.12325586 95.96675898 32.70095825 93.76268005 C36.28503538 90.5199436 38.92131066 87.92292109 39.70877075 82.98924255 C39.96479744 77.30545011 39.26222757 73.73829351 35.32595825 69.38768005 C30.9753448 65.45141074 27.40818819 64.74884087 21.72439575 65.00486755 C16.79071722 65.79232765 14.1936947 68.42860292 10.95095825 72.01268005 Z M58.95095825 72.01268005 C56.74687932 76.59038245 56.52879435 80.39320416 57.32595825 85.38768005 C59.65564756 90.22626554 62.48737277 93.05799075 67.32595825 95.38768005 C72.32043414 96.18484396 76.12325586 95.96675898 80.70095825 93.76268005 C84.28503538 90.5199436 86.92131066 87.92292109 87.70877075 82.98924255 C87.96479744 77.30545011 87.26222757 73.73829351 83.32595825 69.38768005 C78.9753448 65.45141074 75.40818819 64.74884087 69.72439575 65.00486755 C64.79071722 65.79232765 62.1936947 68.42860292 58.95095825 72.01268005 Z M106.95095825 72.01268005 C104.74687932 76.59038245 104.52879435 80.39320416 105.32595825 85.38768005 C107.65564756 90.22626554 110.48737277 93.05799075 115.32595825 95.38768005 C120.32043414 96.18484396 124.12325586 95.96675898 128.70095825 93.76268005 C132.28503538 90.5199436 134.92131066 87.92292109 135.70877075 82.98924255 C135.96479744 77.30545011 135.26222757 73.73829351 131.32595825 69.38768005 C126.9753448 65.45141074 123.40818819 64.74884087 117.72439575 65.00486755 C112.79071722 65.79232765 110.1936947 68.42860292 106.95095825 72.01268005 Z M-23.67404175 160.38768005 C-23.73591675 205.08205505 -23.79779175 249.77643005 -23.86154175 295.82518005 C-23.88885376 309.94355652 -23.91616577 324.06193298 -23.94430542 338.60813904 C-23.95433801 351.25102887 -23.95433801 351.25102887 -23.96037292 363.8939209 C-23.96317066 369.53023022 -23.97417573 375.16645035 -23.99076843 380.80273438 C-24.00988205 387.30496174 -24.01854546 393.80710354 -24.0143766 400.3093592 C-24.01257146 403.63468196 -24.01708739 406.95966051 -24.03168714 410.28497398 C-24.0466121 413.84987743 -24.04301056 417.41430307 -24.0348053 420.97921753 C-24.04354329 422.01104188 -24.05228128 423.04286623 -24.06128407 424.10595798 C-24.02095084 430.62736338 -23.65251109 437.67789388 -19.39908379 442.97568411 C-13.95502273 447.95638169 -7.42962247 448.63726441 -0.34102058 448.64215565 C0.36672341 448.64536213 1.07446741 448.6485686 1.80365819 448.65187225 C4.16923768 448.66015695 6.53456297 448.65425339 8.90014648 448.64837646 C10.61569228 448.65139785 12.33123673 448.65528726 14.0467788 448.65996903 C18.75666576 448.67025947 23.46647668 448.66806454 28.17636991 448.66378844 C33.25759279 448.66132312 38.33879727 448.67033296 43.42001343 448.67782593 C53.37299323 448.69058034 63.32594607 448.69236569 73.27893268 448.69002566 C81.36841387 448.68824318 89.45788688 448.68999065 97.5473671 448.69425011 C98.69837044 448.6948453 99.84937378 448.69544048 101.03525601 448.69605371 C103.37346569 448.69726545 105.71167537 448.69847959 108.04988505 448.69969609 C129.98154899 448.71057448 151.91319755 448.70840771 173.84486236 448.70231124 C193.91045475 448.69714178 213.97599859 448.70839777 234.04158138 448.72740946 C254.64310712 448.74677937 275.24460989 448.75504535 295.8461448 448.75128621 C307.41305967 448.74937288 318.97993322 448.75187454 330.54684067 448.76600075 C340.39380619 448.77790471 350.24070496 448.77933048 360.08767138 448.76721058 C365.11153945 448.76131501 370.13528537 448.76024126 375.15914536 448.77221298 C379.75956672 448.78304826 384.35976358 448.77999646 388.96017434 448.7659513 C390.62296741 448.76329788 392.28577794 448.76569111 393.9485539 448.77368716 C407.15231362 449.25769667 407.15231362 449.25769667 418.89279163 444.11277467 C424.95823954 437.58521398 424.61326577 429.5558116 424.56646729 421.21972656 C424.56817932 420.10570465 424.56989136 418.99168274 424.57165527 417.84390259 C424.57496234 414.10395383 424.56392384 410.36418468 424.55300903 406.62425232 C424.55128318 403.90005099 424.55257465 401.17585299 424.55373955 398.45165157 C424.55480153 391.89494966 424.54557988 385.33830268 424.53273689 378.78161487 C424.51832248 371.19517906 424.5167466 363.60877612 424.51516724 356.02232361 C424.50467163 335.99826707 424.47674934 315.97422273 424.45095825 295.95018005 C424.40970825 251.21455505 424.36845825 206.47893005 424.32595825 160.38768005 C276.48595825 160.38768005 128.64595825 160.38768005 -23.67404175 160.38768005 Z " fill="#883292" transform="translate(55.674041748046875,15.612319946289063)"/>
<path d="M0 0 C4.96579306 2.30554678 7.41536944 5.22386393 10 10 C10.56778992 13.28350329 10.54397069 16.51224847 10.51416016 19.83813477 C10.52128525 20.81299332 10.52841034 21.78785187 10.53575134 22.79225159 C10.55501663 26.00884333 10.54675193 29.22477597 10.5390625 32.44140625 C10.54897476 34.68856257 10.56091801 36.93571076 10.57479858 39.18284607 C10.60717273 45.10111942 10.61755174 51.01920787 10.62164307 56.93756104 C10.63039142 66.38435377 10.66619539 75.83099419 10.7138176 85.27766228 C10.72630683 88.56167785 10.7256522 91.84549759 10.72354126 95.12953186 C10.76033935 114.66901498 11.62451584 131.21285732 25.87890625 145.94140625 C36.60377665 155.97295169 48.92456282 158.70596167 63.1875 158.375 C75.75401453 157.68344653 85.36377533 151.11361038 93.75 142.1875 C103.63792647 130.34951843 105.15044316 116.54008075 105.1418457 101.71020508 C105.14705734 100.23039406 105.14705734 100.23039406 105.15237427 98.72068787 C105.15968416 96.59440985 105.1650547 94.46812444 105.16866493 92.34183693 C105.17587725 88.97471158 105.19157581 85.60772803 105.21000671 82.24064636 C105.26227707 72.67290083 105.31049799 63.10523907 105.32592773 53.53735352 C105.336004 47.67185895 105.36530723 41.80673114 105.40724754 35.94138145 C105.41955428 33.7107082 105.42467941 31.4799832 105.42244911 29.24927711 C105.42009816 26.13298856 105.44224349 23.01775704 105.4699707 19.90161133 C105.46006859 18.52451492 105.46006859 18.52451492 105.44996643 17.11959839 C105.53091592 11.57812168 106.30912027 8.39748421 110 4 C113.81930172 0.37166337 116.88279006 -0.31000458 122 -0.5 C127.11720994 -0.31000458 130.18069828 0.37166337 134 4 C138.65879586 9.39812098 138.57223466 14.04562997 138.51757812 20.99975586 C138.5245874 22.09819824 138.53159668 23.19664062 138.53881836 24.32836914 C138.55641077 27.95745193 138.54476305 31.58575306 138.53125 35.21484375 C138.53394627 37.74866383 138.53782982 40.28248289 138.54284668 42.81629944 C138.54874493 48.1316303 138.54055873 53.44668339 138.52148438 58.76196289 C138.49981711 64.86950922 138.50669416 70.97651919 138.52879 77.08405203 C138.54929587 82.99260964 138.54690993 88.90096714 138.53526306 94.8095417 C138.53261254 97.30633178 138.5358059 99.80313571 138.54518127 102.29990959 C138.59340577 118.76591132 138.09538979 133.53479174 130.1875 148.375 C129.84493164 149.03927002 129.50236328 149.70354004 129.14941406 150.38793945 C126.31620632 155.73251821 122.95979435 160.42738034 119 165 C118.40316406 165.79277344 117.80632812 166.58554687 117.19140625 167.40234375 C108.99135931 177.12254199 97.73987258 183.54544315 86 188 C84.88882813 188.433125 83.77765625 188.86625 82.6328125 189.3125 C62.6316336 195.84349719 40.2672456 193.24322972 21.625 184.1875 C15.53995216 181.07747734 10.15876195 177.50127268 5 173 C4.03191406 172.22785156 3.06382812 171.45570313 2.06640625 170.66015625 C-7.33055233 162.81610984 -13.96747251 151.44231369 -18 140 C-18.33319244 139.08536484 -18.66638489 138.17072968 -19.00967407 137.2283783 C-23.01501599 124.52911967 -22.58082951 111.79346273 -22.53125 98.58984375 C-22.53394906 96.04732617 -22.53783492 93.5048096 -22.54284668 90.96229553 C-22.54871247 85.66301475 -22.54065597 80.36393775 -22.52148438 75.06469727 C-22.49962318 68.9516736 -22.50685291 62.8391818 -22.52879 56.72617048 C-22.54915364 50.81277428 -22.54697142 44.89954264 -22.53526306 38.98611641 C-22.53259828 36.48188769 -22.53585675 33.97764532 -22.54518127 31.47343254 C-22.55534027 27.98183949 -22.53985786 24.49127244 -22.51757812 20.99975586 C-22.52567505 19.96955826 -22.53377197 18.93936066 -22.54211426 17.87794495 C-22.47166788 11.91836994 -21.93281441 8.55693029 -18 4 C-12.72867143 -1.00776214 -6.89190982 -0.92775709 0 0 Z " fill="#883293" transform="translate(150,224)"/>
<path d="M0 0 C0.95390625 -0.0038269 1.9078125 -0.00765381 2.890625 -0.01159668 C4.90105245 -0.01431036 6.91151553 -0.00698737 8.921875 0.00976562 C11.99038787 0.03118291 15.05655952 0.00994534 18.125 -0.015625 C20.08333848 -0.01298163 22.0416755 -0.00785645 24 0 C25.36898437 -0.01214539 25.36898437 -0.01214539 26.765625 -0.02453613 C32.34723968 0.05719316 35.57473138 0.80813314 40 4.53125 C43.62833663 8.35055172 44.31000458 11.41404006 44.5 16.53125 C44.31000458 21.64845994 43.62833663 24.71194828 40 28.53125 C35.42788179 32.30821721 34.24601419 32.53125 28 32.53125 C28 74.77125 28 117.01125 28 160.53125 C29.98 160.53125 31.96 160.53125 34 160.53125 C38.77054673 163.0119343 41.72954418 165.64103747 44 170.53125 C44.75381535 176.1310212 44.77303575 180.86624991 42.375 186.03125 C38.45186912 190.16086145 35.15249014 192.71057981 29.375 193.04882812 C27.58351958 193.07506004 25.79160196 193.07839477 24 193.0625 C22.56914062 193.06824036 22.56914062 193.06824036 21.109375 193.07409668 C19.09894755 193.07681036 17.08848447 193.06948737 15.078125 193.05273438 C12.00961213 193.03131709 8.94344048 193.05255466 5.875 193.078125 C3.91666152 193.07548163 1.9583245 193.07035645 0 193.0625 C-1.36898438 193.07464539 -1.36898438 193.07464539 -2.765625 193.08703613 C-8.34723968 193.00530684 -11.57473138 192.25436686 -16 188.53125 C-19.62833663 184.71194828 -20.31000458 181.64845994 -20.5 176.53125 C-20.31000458 171.41404006 -19.62833663 168.35055172 -16 164.53125 C-11.42788179 160.75428279 -10.24601419 160.53125 -4 160.53125 C-4 118.29125 -4 76.05125 -4 32.53125 C-5.98 32.53125 -7.96 32.53125 -10 32.53125 C-14.77054673 30.0505657 -17.72954418 27.42146253 -20 22.53125 C-20.75381535 16.9314788 -20.77303575 12.19625009 -18.375 7.03125 C-12.56912379 0.91980136 -8.09275421 -0.07179748 0 0 Z " fill="#873393" transform="translate(340,223.46875)"/>
</svg>
